<svg width="164" height="32" viewBox="0 0 164 32" fill="none" xmlns="http://www.w3.org/2000/svg">
<path d="M59.3975 14.8871C59.3975 17.3906 58.398 19.7915 56.6188 21.5617C54.8395 23.3319 52.4264 24.3264 49.9102 24.3264C47.7079 24.3006 45.5816 23.5213 43.8886 22.1197L42.8702 21.2816C42.6723 21.1213 42.4199 21.043 42.1654 21.0631C41.8757 21.0735 41.5981 21.182 41.3787 21.3705L41.4052 21.3393C40.3296 22.4801 38.9858 23.337 37.4946 23.8328C36.0035 24.3286 34.4119 24.4477 32.863 24.1795C31.3141 23.9112 29.8565 23.264 28.6215 22.296C27.3865 21.3281 26.4127 20.0698 25.7878 18.6344C25.163 17.199 24.9066 15.6316 25.0419 14.0732C25.1771 12.5147 25.6997 11.0142 26.5626 9.70661C27.4254 8.39903 28.6016 7.32542 29.9851 6.58242C31.3686 5.83941 32.916 5.45033 34.4882 5.45017C35.7865 5.43723 37.073 5.69606 38.2642 6.20986C39.4555 6.72365 40.5248 7.48092 41.4028 8.43253L41.4486 8.47815C41.6567 8.61432 41.902 8.6831 42.151 8.67505C42.3887 8.68001 42.6237 8.62464 42.834 8.51417L43.0126 8.3845C44.9168 6.73004 47.1154 5.45017 49.9078 5.45017C51.1537 5.44985 52.3874 5.6937 53.5386 6.16778C54.6898 6.64186 55.7358 7.33689 56.617 8.21319C57.4982 9.08949 58.1973 10.1299 58.6744 11.275C59.1515 12.4201 59.3972 13.6475 59.3975 14.8871ZM46.1042 10.2119C44.4027 11.8207 43.6232 12.1881 42.2427 12.1929C41.1498 12.1446 40.1001 11.7548 39.2427 11.0787C38.7901 10.6359 38.3061 10.2258 37.7947 9.85167C37.0706 9.3402 36.7134 9.08327 36.2163 8.89117C35.6501 8.70928 35.0562 8.628 34.4617 8.65104C32.9557 8.70627 28.428 10.4448 28.428 14.8727C28.428 18.3089 31.0129 21.0967 34.4617 21.0967C36.4407 21.0967 37.6426 20.2731 39.0304 19.0125L39.3465 18.7723C39.3465 18.7723 42.2089 16.7024 45.0592 18.7051L45.8991 19.4519C46.9883 20.4895 48.4336 21.0759 49.9416 21.0919C53.3952 21.0919 55.9921 18.2633 56.1273 14.8823C56.1273 10.949 52.4275 8.44693 49.9416 8.63903C48.397 8.77591 47.3182 9.05925 46.1042 10.2119Z" fill="#94D401"/>
<path d="M3.37396 8.21162C4.24329 7.31845 5.28735 6.61198 6.44172 6.13579C7.59609 5.65961 8.83628 5.42382 10.0858 5.44297C11.3353 5.42382 12.5755 5.65961 13.7298 6.13579C14.8842 6.61198 15.9283 7.31845 16.7976 8.21162C17.6953 9.07656 18.4054 10.1153 18.884 11.2639C19.3626 12.4124 19.5996 13.6463 19.5803 14.8895V22.3526C19.5996 23.5958 19.3626 24.8297 18.884 25.9783C18.4054 27.1268 17.6953 28.1656 16.7976 29.0305C15.9279 29.9232 14.8838 30.6294 13.7295 31.1055C12.5752 31.5817 11.3352 31.8177 10.0858 31.7991C8.13281 31.8149 6.22533 31.2128 4.63861 30.0798C3.05464 28.9903 1.84893 27.4392 1.18737 25.6399H4.69412C5.25835 26.5566 6.05039 27.3132 6.9939 27.8368C7.93742 28.3605 9.00059 28.6335 10.081 28.6295C10.9138 28.642 11.7406 28.4856 12.5107 28.1698C13.2808 27.854 13.9782 27.3853 14.5603 26.7925C15.1606 26.2195 15.6357 25.5295 15.9558 24.7655C16.276 24.0016 16.4344 23.1802 16.4211 22.3526C16.4202 22.278 16.4154 22.2034 16.4066 22.1293C16.4066 22.0404 16.3921 21.978 16.3921 21.9372C14.6707 23.5051 12.4147 24.3634 10.081 24.3384C8.83244 24.3572 7.59327 24.1215 6.43979 23.6458C5.28631 23.17 4.24294 22.4643 3.37396 21.5722C2.47565 20.7067 1.76524 19.6671 1.28662 18.5177C0.808004 17.3683 0.571338 16.1335 0.591247 14.8895C0.572001 13.6463 0.808988 12.4124 1.28759 11.2639C1.76619 10.1153 2.47625 9.07656 3.37396 8.21162ZM14.5652 10.4328C13.9852 9.83622 13.2885 9.36418 12.5181 9.04577C11.7477 8.72736 10.9199 8.56933 10.0858 8.58141C9.25165 8.56933 8.42388 8.72736 7.65349 9.04577C6.88309 9.36418 6.18642 9.83622 5.60641 10.4328C5.00659 11.0097 4.532 11.7028 4.21196 12.4693C3.89191 13.2359 3.7332 14.0596 3.74564 14.8895C3.73261 15.7174 3.8911 16.5391 4.21124 17.3034C4.53138 18.0677 5.0063 18.7582 5.60641 19.3318C6.18864 19.9243 6.88611 20.3926 7.65625 20.708C8.42639 21.0234 9.25305 21.1794 10.0858 21.1664C10.9185 21.1794 11.7452 21.0234 12.5153 20.708C13.2855 20.3926 13.9829 19.9243 14.5652 19.3318C15.1653 18.7582 15.6402 18.0677 15.9603 17.3034C16.2805 16.5391 16.439 15.7174 16.4259 14.8895C16.4384 14.0596 16.2797 13.2359 15.9596 12.4693C15.6396 11.7028 15.165 11.0097 14.5652 10.4328Z" fill="black"/>
<path d="M64.7889 14.8896V0.201172L67.9264 1.77159V14.8896C67.9249 15.7185 68.0878 16.5395 68.4058 17.3055C68.7239 18.0716 69.1908 18.7676 69.7799 19.3537C70.3689 19.9397 71.0685 20.4043 71.8384 20.7208C72.6084 21.0372 73.4335 21.1993 74.2666 21.1977V24.3362C73.0182 24.3557 71.779 24.1206 70.6255 23.6452C69.4719 23.1699 68.4285 22.4644 67.5596 21.5723C66.6635 20.7058 65.9553 19.6658 65.4788 18.5164C65.0022 17.3671 64.7675 16.1328 64.7889 14.8896Z" fill="black"/>
<path d="M93.9436 14.8898V25.3737L90.7892 23.7745V21.9375C89.055 23.5035 86.7909 24.361 84.449 24.3388C83.1997 24.3582 81.9596 24.1228 80.8053 23.647C79.6509 23.1713 78.6068 22.4653 77.7372 21.5725C76.84 20.7072 76.1302 19.6684 75.6517 18.5199C75.1731 17.3715 74.9358 16.1377 74.9545 14.8946C74.9358 13.6515 75.1731 12.4178 75.6517 11.2693C76.1302 10.1209 76.84 9.08202 77.7372 8.21674C78.6182 7.33895 79.6644 6.64257 80.8161 6.16744C81.9678 5.69231 83.2023 5.44775 84.449 5.44775C85.6958 5.44775 86.9303 5.69231 88.082 6.16744C89.2337 6.64257 90.2799 7.33895 91.1609 8.21674C92.058 9.08112 92.7677 10.1191 93.2463 11.2668C93.7249 12.4144 93.9622 13.6474 93.9436 14.8898ZM88.9236 10.4475C87.7327 9.2709 86.1225 8.61058 84.4442 8.61058C82.7659 8.61058 81.1557 9.2709 79.9649 10.4475C79.3648 11.0211 78.8901 11.7116 78.5704 12.476C78.2506 13.2403 78.0927 14.062 78.1065 14.8898C78.1389 16.5412 78.821 18.1141 80.0062 19.2706C81.1915 20.427 82.7853 21.0749 84.4454 21.0749C86.1055 21.0749 87.6994 20.427 88.8846 19.2706C90.0699 18.1141 90.752 16.5412 90.7844 14.8898C90.7977 14.0619 90.6393 13.2401 90.3192 12.4758C89.999 11.7115 89.5239 11.021 88.9236 10.4475Z" fill="black"/>
<path d="M97.04 12.7862C97.0273 11.8207 97.2135 10.8628 97.5871 9.97159C97.9606 9.08038 98.5137 8.27473 99.2121 7.6043C99.8969 6.91944 100.711 6.37597 101.607 6.00512C102.504 5.63427 103.465 5.44336 104.436 5.44336C105.407 5.44336 106.368 5.63427 107.265 6.00512C108.161 6.37597 108.975 6.91944 109.66 7.6043C110.358 8.27473 110.912 9.08038 111.285 9.97159C111.659 10.8628 111.845 11.8207 111.832 12.7862V24.3362H108.646V12.7862C108.643 11.6797 108.2 10.6192 107.415 9.83612C106.629 9.05299 105.564 8.61069 104.452 8.60562C103.897 8.60044 103.347 8.70714 102.836 8.91927C102.324 9.13141 101.86 9.44458 101.474 9.83987C101.073 10.219 100.755 10.6764 100.54 11.1833C100.325 11.6903 100.217 12.236 100.223 12.7862V24.3362L97.04 25.9067V12.7862Z" fill="black"/>
<path d="M123.409 5.443C125.118 5.44481 126.794 5.90162 128.265 6.76598C129.736 7.63034 130.948 8.87074 131.774 10.3584H127.845C127.262 9.78268 126.57 9.32888 125.808 9.02371C125.046 8.71854 124.23 8.56816 123.409 8.58144C122.577 8.56848 121.751 8.72617 120.983 9.04469C120.215 9.36321 119.521 9.83573 118.944 10.4328C118.349 11.0123 117.879 11.7062 117.562 12.4724C117.245 13.2386 117.088 14.061 117.101 14.8895C117.099 15.7144 117.26 16.5314 117.577 17.2938C117.893 18.0562 118.358 18.7489 118.944 19.3322C119.53 19.9154 120.226 20.3777 120.993 20.6925C121.759 21.0072 122.58 21.1683 123.409 21.1664C124.416 21.1749 125.409 20.9417 126.305 20.4869C127.178 20.0492 127.932 19.4093 128.504 18.6211H132.124C131.399 20.3058 130.193 21.7418 128.656 22.7512C127.108 23.799 125.275 24.3518 123.402 24.3361C122.156 24.3557 120.919 24.1205 119.769 23.6451C118.618 23.1697 117.577 22.4641 116.712 21.5722C115.818 20.705 115.112 19.6654 114.637 18.5171C114.161 17.3689 113.926 16.1361 113.946 14.8943C113.926 13.6526 114.161 12.4198 114.637 11.2715C115.112 10.1233 115.818 9.08368 116.712 8.21645C117.577 7.32189 118.619 6.61405 119.771 6.13692C120.923 5.6598 122.161 5.42359 123.409 5.443Z" fill="black"/>
<path d="M135.744 8.21186C136.625 7.33407 137.672 6.63769 138.823 6.16256C139.975 5.68743 141.21 5.44287 142.456 5.44287C143.703 5.44287 144.938 5.68743 146.089 6.16256C147.241 6.63769 148.287 7.33407 149.168 8.21186C150.066 9.0768 150.776 10.1156 151.254 11.2641C151.733 12.4126 151.97 13.6466 151.951 14.8897C151.948 15.4157 151.899 15.9404 151.804 16.4578H136.329C136.674 17.8119 137.465 19.0117 138.576 19.8654C139.688 20.719 141.055 21.1772 142.459 21.1666C143.326 21.1855 144.187 21.0181 144.983 20.6758C145.78 20.3335 146.493 19.8244 147.073 19.1832H150.913C150.119 20.7334 148.91 22.035 147.42 22.9444C145.929 23.8538 144.215 24.3355 142.466 24.3363C141.215 24.3574 139.973 24.123 138.817 23.6476C137.661 23.1722 136.615 22.4659 135.744 21.5724C134.847 20.7075 134.137 19.6687 133.658 18.5202C133.179 17.3717 132.942 16.1377 132.962 14.8946C132.942 13.6506 133.178 12.4157 133.657 11.2663C134.136 10.1169 134.846 9.07735 135.744 8.21186ZM136.326 13.3193H148.589C148.266 11.9622 147.479 10.7587 146.364 9.91435C145.243 9.0506 143.866 8.58187 142.449 8.58187C141.032 8.58187 139.655 9.0506 138.534 9.91435C137.426 10.7616 136.646 11.9648 136.329 13.3193H136.326Z" fill="black"/>
<path d="M154.125 14.8896C154.106 13.6477 154.341 12.4148 154.817 11.2665C155.293 10.1182 156 9.07875 156.894 8.21172C157.76 7.31803 158.801 6.61108 159.953 6.13479C161.105 5.6585 162.344 5.42305 163.591 5.44307V8.58151C162.759 8.56855 161.933 8.72624 161.165 9.04476C160.397 9.36328 159.703 9.83581 159.126 10.4329C158.53 11.012 158.06 11.7059 157.743 12.4722C157.426 13.2385 157.269 14.061 157.282 14.8896V24.3361L154.125 25.9066V14.8896Z" fill="black"/>
</svg>
