<svg width="25" height="24" viewBox="0 0 25 24" fill="none" xmlns="http://www.w3.org/2000/svg">
<path d="M16.8896 5.46304C16.8664 5.44852 16.8437 5.43517 16.8217 5.42294C16.6126 5.30647 16.3085 5.20123 15.984 5.24256C15.9758 5.2436 15.9677 5.24477 15.9596 5.24608L14.0841 5.54794C13.6751 5.61376 13.397 5.99864 13.4628 6.40759C13.5286 6.81654 13.9135 7.0947 14.3224 7.02888L15.038 6.91372C12.0711 10.746 8.13085 10.8002 6.22811 10.7368C5.81412 10.723 5.46734 11.0474 5.45355 11.4614C5.43976 11.8754 5.76418 12.2222 6.17816 12.2359C8.23956 12.3046 12.9177 12.248 16.3427 7.67737L16.5035 8.20875C16.6235 8.6052 17.0422 8.82932 17.4386 8.70932C17.8351 8.58933 18.0592 8.17067 17.9392 7.77422L17.4433 6.13578C17.438 6.11848 17.4322 6.10137 17.4257 6.0845C17.3155 5.79714 17.1005 5.59971 16.912 5.47733C16.9047 5.47246 16.8972 5.46769 16.8896 5.46304Z" fill="#161616"/>
<path d="M17.9609 13C17.9609 12.5858 17.6252 12.25 17.2109 12.25C16.7967 12.25 16.4609 12.5858 16.4609 13V18C16.4609 18.4142 16.7967 18.75 17.2109 18.75C17.6252 18.75 17.9609 18.4142 17.9609 18V13Z" fill="#161616"/>
<path d="M12.2109 14.25C12.6252 14.25 12.9609 14.5858 12.9609 15V18C12.9609 18.4142 12.6252 18.75 12.2109 18.75C11.7967 18.75 11.4609 18.4142 11.4609 18V15C11.4609 14.5858 11.7967 14.25 12.2109 14.25Z" fill="#161616"/>
<path d="M7.21094 15.25C7.62515 15.25 7.96094 15.5858 7.96094 16V18C7.96094 18.4142 7.62515 18.75 7.21094 18.75C6.79672 18.75 6.46094 18.4142 6.46094 18V16C6.46094 15.5858 6.79672 15.25 7.21094 15.25Z" fill="#161616"/>
<path fill-rule="evenodd" clip-rule="evenodd" d="M12.2681 1.75H12.1537C9.96301 1.74999 8.24236 1.74998 6.89896 1.93059C5.5223 2.11567 4.43004 2.50271 3.57185 3.36091C2.71365 4.21911 2.32662 5.31137 2.14153 6.68803C1.96091 8.03144 1.96092 9.75212 1.96094 11.9428V12.0572C1.96092 14.2479 1.96091 15.9685 2.14153 17.312C2.32662 18.6886 2.71365 19.7809 3.57184 20.6391C4.43004 21.4974 5.52231 21.8844 6.89897 22.0695C8.2422 22.25 9.96259 22.25 12.1529 22.25H12.269C14.4592 22.25 16.1797 22.25 17.5229 22.0695C18.8996 21.8844 19.9919 21.4974 20.8501 20.6391C21.7083 19.7809 22.0953 18.6886 22.2803 17.312C22.461 15.9685 22.461 14.2479 22.4609 12.0572V11.942C22.461 9.75169 22.461 8.03126 22.2804 6.68803C22.0953 5.31137 21.7083 4.2191 20.8501 3.3609C19.9918 2.50271 18.8996 2.11568 17.5229 1.93059C16.1795 1.74998 14.4588 1.74999 12.2681 1.75ZM4.63251 4.42157C5.16555 3.88852 5.8885 3.57994 7.09883 3.41721C8.33073 3.25159 9.95056 3.25 12.2109 3.25C14.4713 3.25 16.0911 3.25159 17.323 3.41722C18.5334 3.57994 19.2563 3.88853 19.7894 4.42158C20.3225 4.95462 20.6311 5.67756 20.7938 6.88788C20.9594 8.11979 20.9609 9.73962 20.9609 12C20.9609 14.2604 20.9593 15.8802 20.7937 17.1121C20.631 18.3224 20.3224 19.0454 19.7894 19.5785C19.2564 20.1115 18.5334 20.4201 17.3231 20.5828C16.0912 20.7484 14.4713 20.75 12.2109 20.75C9.95056 20.75 8.33073 20.7484 7.09882 20.5828C5.8885 20.4201 5.16556 20.1115 4.63252 19.5785C4.09947 19.0454 3.79088 18.3224 3.62816 17.1121C3.46253 15.8802 3.46094 14.2604 3.46094 12C3.46094 9.73963 3.46253 8.1198 3.62816 6.8879C3.79088 5.67757 4.09947 4.95462 4.63251 4.42157Z" fill="#161616"/>
</svg>
