<svg width="16" height="16" viewBox="0 0 16 16" fill="none" xmlns="http://www.w3.org/2000/svg">
<path d="M5.76062 4.83301C4.75645 4.83301 3.84092 5.25945 3.18605 6.06019C2.53635 6.85461 2.16699 7.98546 2.16699 9.37257C2.16699 10.5692 2.56429 11.8289 3.14986 12.8571C3.72692 13.8705 4.54069 14.7511 5.44423 15.0749C6.21222 15.3502 6.93453 14.9509 7.39019 14.6243C7.54352 14.5144 7.70197 14.4152 7.84976 14.3452C8.0044 14.2719 8.1096 14.2488 8.16677 14.2488C8.22394 14.2488 8.32914 14.2719 8.48377 14.3452C8.63156 14.4152 8.79001 14.5144 8.94334 14.6243C9.399 14.9509 10.1213 15.3502 10.8893 15.0749C11.5381 14.8424 12.1336 14.3251 12.6225 13.6989C13.1169 13.0656 13.5331 12.282 13.8081 11.4558C13.8511 11.3265 13.8395 11.1852 13.7759 11.0647C13.7124 10.9441 13.6023 10.8547 13.4713 10.8172C12.6746 10.589 12.1041 9.87216 12.1041 9.03594C12.1041 8.26963 12.5825 7.60416 13.2765 7.32192C13.4096 7.26783 13.5129 7.15914 13.5603 7.02355C13.6076 6.88797 13.5943 6.73858 13.5239 6.61344C12.8778 5.46609 11.7979 4.83301 10.5729 4.83301C9.90398 4.83301 9.31584 5.10104 8.87312 5.38919C8.40357 5.69479 7.92996 5.69479 7.46042 5.38919C7.01769 5.10104 6.42956 4.83301 5.76062 4.83301Z" fill="#222222"/>
<path d="M11.161 1.55723C11.1568 1.47801 11.1511 1.41319 11.1463 1.36686L11.1367 1.28656C11.1048 1.06754 10.9321 0.895119 10.7131 0.863285L10.6331 0.8537C10.5868 0.848893 10.522 0.843224 10.4428 0.839037C10.2852 0.830708 10.0661 0.827996 9.81965 0.851056C9.34505 0.895457 8.67953 1.04357 8.19521 1.52789C7.71088 2.01221 7.56277 2.67774 7.51837 3.15233C7.49531 3.3988 7.49803 3.61787 7.50635 3.77545C7.51054 3.85467 7.51621 3.9195 7.52102 3.96582L7.53065 4.04612C7.56248 4.26514 7.7352 4.43756 7.95421 4.4694L8.03418 4.47898C8.08051 4.48379 8.14533 4.48946 8.22455 4.49365C8.38213 4.50197 8.6012 4.50469 8.84767 4.48163C9.32227 4.43723 9.98779 4.28912 10.4721 3.80479C10.9564 3.32047 11.1045 2.65495 11.1489 2.18036C11.172 1.93389 11.1693 1.71481 11.161 1.55723Z" fill="#222222"/>
</svg>
