<svg width="24" height="24" viewBox="0 0 24 24" fill="none" xmlns="http://www.w3.org/2000/svg">
<path d="M17.3973 15.4446C17.2754 15.2832 16.9115 14.8015 16.6947 14.5237C16.2607 13.9675 15.6676 13.2284 15.0277 12.4916C14.3847 11.7509 13.7092 11.0296 13.1091 10.4994C12.8082 10.2335 12.5438 10.0315 12.3257 9.89999C12.1206 9.77631 11.9994 9.7506 11.9994 9.7506C11.9994 9.7506 11.8817 9.77632 11.6766 9.89998C11.4585 10.0315 11.1941 10.2335 10.8932 10.4994C10.2931 11.0296 9.6176 11.7509 8.97456 12.4916C8.33476 13.2285 7.74165 13.9676 7.30757 14.5238C7.09084 14.8015 6.72744 15.2826 6.60556 15.4439C6.35992 15.7775 5.88992 15.8494 5.5564 15.6038C5.22287 15.3581 5.15162 14.8886 5.39726 14.5551L5.39918 14.5526C5.52702 14.3833 5.90392 13.8843 6.12505 13.6009C6.56892 13.0322 7.17936 12.2713 7.84191 11.5082C8.50123 10.7488 9.2269 9.97007 9.90002 9.37532C10.2357 9.0787 10.576 8.81198 10.9022 8.61536C11.2078 8.43114 11.5946 8.24986 12.0012 8.24986C12.4077 8.24987 12.7946 8.43115 13.1001 8.61536C13.4263 8.81199 13.7666 9.07871 14.1023 9.37532C14.7754 9.97007 15.5011 10.7488 16.1604 11.5081C16.8229 12.2712 17.4334 13.0321 17.8773 13.6009C18.0985 13.8845 18.4755 14.3835 18.603 14.5524L18.6047 14.5546C18.8503 14.8881 18.7794 15.3581 18.4459 15.6037C18.1124 15.8493 17.6429 15.7781 17.3973 15.4446Z" fill="#FCFCFC"/>
</svg>
