<svg width="24" height="24" viewBox="0 0 24 24" fill="none" xmlns="http://www.w3.org/2000/svg">
<path d="M5.96133 5.99964C5.73273 6.24616 5.60593 6.57142 5.52616 6.84833C5.44106 7.14372 5.38304 7.48162 5.34241 7.82955C5.26099 8.52684 5.24064 9.34448 5.24725 10.1098C5.2539 10.8793 5.28809 11.6165 5.32044 12.1599C5.33664 12.432 5.35245 12.6566 5.36424 12.8137C5.37014 12.8922 5.37505 12.954 5.3785 12.9964L5.38254 13.0452L5.38365 13.0581L5.38408 13.0632C5.42003 13.4758 5.78369 13.7812 6.19634 13.7453C6.60897 13.7093 6.91429 13.3451 6.87837 12.9325L6.87816 12.93L6.87723 12.9191L6.87355 12.8745C6.87033 12.8351 6.86568 12.7765 6.86003 12.7013C6.84873 12.5509 6.83347 12.3341 6.81779 12.0707C6.78638 11.5431 6.75356 10.8328 6.7472 10.0968C6.7408 9.35642 6.76145 8.61018 6.83229 8.00353C6.83627 7.96946 6.84038 7.93608 6.84461 7.9034L17.4697 18.5285C17.7626 18.8214 18.2374 18.8214 18.5303 18.5285C18.8232 18.2356 18.8232 17.7607 18.5303 17.4678L7.90281 6.84028C7.91716 6.83852 7.93166 6.83678 7.9463 6.83506C8.54613 6.76477 9.29656 6.74377 10.0466 6.74954C10.7919 6.75526 11.5156 6.78715 12.0546 6.81779C12.3237 6.83308 12.5456 6.848 12.6997 6.85905C12.7768 6.86458 12.8369 6.86914 12.8774 6.87229L12.9231 6.8759L12.9376 6.87708C13.3504 6.91137 13.7128 6.60456 13.7471 6.19179C13.7815 5.779 13.4741 5.41651 13.0614 5.38219L13.0568 5.38181L13.0436 5.38074L12.9937 5.3768C12.9504 5.37343 12.8873 5.36865 12.807 5.36289C12.6466 5.35139 12.4172 5.33597 12.1398 5.3202C11.5859 5.28872 10.8359 5.25556 10.0581 5.24958C9.28489 5.24364 8.46268 5.26429 7.77172 5.34526C7.42745 5.3856 7.09297 5.44342 6.80386 5.52925C6.5404 5.60746 6.20202 5.74009 5.96133 5.99964Z" fill="#222222"/>
</svg>
