<svg width="1347" height="984" viewBox="0 0 1347 984" fill="none" xmlns="http://www.w3.org/2000/svg">
<g opacity="0.16">
<path d="M406.352 615.107C340.299 473.454 401.584 305.075 543.237 239.021C684.889 172.967 853.269 234.252 919.323 375.905C985.377 517.558 924.091 685.938 782.439 751.991C640.786 818.045 472.406 756.76 406.352 615.107Z" stroke="#707070"/>
<path d="M458.545 727.036C392.609 585.634 453.987 417.457 595.641 351.403C737.295 285.349 905.579 346.432 971.516 487.834C1037.45 629.236 976.074 797.413 834.42 863.467C692.767 929.521 524.482 868.438 458.545 727.036Z" stroke="#707070"/>
<path d="M713.218 608.28C647.282 466.879 708.66 298.702 850.314 232.648C991.967 166.593 1160.25 227.677 1226.19 369.079C1292.13 510.48 1230.75 678.657 1089.09 744.711C947.44 810.766 779.155 749.682 713.218 608.28Z" stroke="#707070"/>
</g>
<path fill-rule="evenodd" clip-rule="evenodd" d="M634.448 209.043C636.033 208.559 637.71 209.451 638.194 211.035L640.897 219.876C641.381 221.46 640.49 223.138 638.905 223.622L630.074 226.322C628.489 226.806 626.812 225.915 626.328 224.33L623.625 215.489C623.141 213.905 624.032 212.228 625.617 211.743L634.448 209.043Z" fill="#588FFF"/>
<path fill-rule="evenodd" clip-rule="evenodd" d="M301.411 829.154C301.783 827.539 303.394 826.533 305.009 826.905L314.016 828.985C315.631 829.358 316.637 830.969 316.265 832.583L314.185 841.591C313.812 843.205 312.201 844.212 310.587 843.839L301.579 841.759C299.965 841.387 298.958 839.776 299.331 838.162L301.411 829.154Z" fill="#FF761B"/>
<path fill-rule="evenodd" clip-rule="evenodd" d="M74.5073 486.934C73.6293 485.529 74.0566 483.678 75.4617 482.8L83.3017 477.901C84.7068 477.023 86.5576 477.45 87.4356 478.856L92.3346 486.696C93.2126 488.101 92.7853 489.951 91.3802 490.829L83.5402 495.728C82.1351 496.606 80.2843 496.179 79.4063 494.774L74.5073 486.934Z" fill="#825EEE"/>
<path fill-rule="evenodd" clip-rule="evenodd" d="M721.682 542.238C722.812 541.026 724.71 540.96 725.922 542.09L728.506 544.499C729.718 545.629 729.784 547.528 728.654 548.739L726.245 551.323C725.115 552.535 723.216 552.601 722.005 551.471L719.421 549.062C718.209 547.932 718.143 546.033 719.273 544.822L721.682 542.238Z" fill="#282A5B"/>
</svg>
