<svg width="18" height="18" viewBox="0 0 18 18" fill="none" xmlns="http://www.w3.org/2000/svg">
<path d="M8.04798 0.918945H8.08812C8.39268 0.918945 8.63959 1.16585 8.63959 1.47042C8.63959 1.77498 8.39268 2.02189 8.08812 2.02189C6.68661 2.02189 5.68895 2.02297 4.9317 2.12106C4.18827 2.21736 3.76034 2.39837 3.44984 2.69751C3.14223 2.99389 2.95825 3.398 2.85963 4.10465C2.75851 4.82934 2.75724 5.78575 2.75724 7.13772V13.221C2.75724 14.0881 2.75882 14.6727 2.82187 15.0825C2.88375 15.4848 2.98098 15.553 3.03381 15.5812C3.12434 15.6295 3.28942 15.6548 3.58789 15.5642C3.88147 15.475 4.22439 15.2971 4.597 15.0617C4.96576 14.8286 5.33495 14.558 5.68477 14.2995L5.75137 14.2502C6.06681 14.0169 6.37931 13.7858 6.63453 13.6321L6.6562 13.6191C6.92195 13.459 7.15577 13.3182 7.36312 13.2205C7.58768 13.1148 7.82055 13.0395 8.08812 13.0395C8.3557 13.0395 8.58856 13.1148 8.81312 13.2205C9.02048 13.3182 9.2543 13.459 9.52003 13.6191L9.54173 13.6321C9.79677 13.7857 10.109 14.0166 10.4243 14.2498L10.4915 14.2995C10.8413 14.558 11.2105 14.8286 11.5792 15.0617C11.9519 15.2971 12.2948 15.475 12.5883 15.5642C12.8868 15.6548 13.0519 15.6295 13.1425 15.5812C13.1953 15.553 13.2925 15.4848 13.3544 15.0825C13.4175 14.6727 13.419 14.0881 13.419 13.221V9.55865C13.419 9.25409 13.6659 9.00718 13.9705 9.00718C14.275 9.00718 14.5219 9.25409 14.5219 9.55865V13.2711C14.5219 14.0771 14.5219 14.7468 14.4445 15.2502C14.3643 15.7715 14.1774 16.2789 13.6619 16.5542C13.2023 16.7996 12.6967 16.7497 12.268 16.6195C11.8344 16.4879 11.3936 16.249 10.9901 15.994C10.5827 15.7366 10.1833 15.4431 9.83592 15.1864L9.79511 15.1562C9.45481 14.9047 9.18143 14.7026 8.97276 14.577C8.67901 14.4 8.49349 14.2892 8.34312 14.2183C8.2043 14.1529 8.13687 14.1425 8.08812 14.1425C8.03937 14.1425 7.97195 14.1529 7.8332 14.2183C7.68283 14.2892 7.49731 14.4 7.20349 14.577C6.99496 14.7025 6.72191 14.9044 6.38198 15.1556L6.34032 15.1864C5.99301 15.4431 5.59356 15.7366 5.18617 15.994C4.78264 16.249 4.3419 16.4879 3.9083 16.6195C3.47959 16.7497 2.97398 16.7996 2.51428 16.5542C1.99884 16.2789 1.81193 15.7715 1.73175 15.2502C1.65425 14.7464 1.65427 14.0758 1.6543 13.2688V7.095C1.65429 5.79562 1.65429 4.76189 1.76728 3.95222C1.88403 3.11559 2.13077 2.43682 2.6846 1.90323C3.23556 1.37242 3.93159 1.13845 4.79001 1.02726C5.62635 0.918933 6.69557 0.918938 8.04798 0.918945Z" fill="#161616"/>
<path d="M12.4999 0.918945C12.8044 0.918945 13.0514 1.16585 13.0514 1.47042V3.86012H15.4411C15.7456 3.86012 15.9925 4.10703 15.9925 4.41159C15.9925 4.71616 15.7456 4.96306 15.4411 4.96306H13.0514V7.35277C13.0514 7.65733 12.8044 7.90424 12.4999 7.90424C12.1953 7.90424 11.9484 7.65733 11.9484 7.35277V4.96306H9.55871C9.25415 4.96306 9.00724 4.71616 9.00724 4.41159C9.00724 4.10703 9.25415 3.86012 9.55871 3.86012H11.9484V1.47042C11.9484 1.16585 12.1953 0.918945 12.4999 0.918945Z" fill="#161616"/>
</svg>
