<svg width="25" height="24" viewBox="0 0 25 24" fill="none" xmlns="http://www.w3.org/2000/svg">
<path fill-rule="evenodd" clip-rule="evenodd" d="M6.92773 10.75C4.58052 10.75 2.67773 8.84721 2.67773 6.5C2.67773 4.15279 4.58052 2.25 6.92773 2.25H17.9277C20.2749 2.25 22.1777 4.15279 22.1777 6.5C22.1777 8.84721 20.2749 10.75 17.9277 10.75H6.92773ZM6.92773 3.75C8.44652 3.75 9.67773 4.98122 9.67773 6.5C9.67773 8.01878 8.44652 9.25 6.92773 9.25C5.40895 9.25 4.17773 8.01878 4.17773 6.5C4.17773 4.98122 5.40895 3.75 6.92773 3.75ZM10.1682 9.25C10.7979 8.50878 11.1777 7.54875 11.1777 6.5C11.1777 5.45125 10.7979 4.49122 10.1682 3.75H17.9277C19.4465 3.75 20.6777 4.98122 20.6777 6.5C20.6777 8.01878 19.4465 9.25 17.9277 9.25H10.1682Z" fill="#161616"/>
<path fill-rule="evenodd" clip-rule="evenodd" d="M6.92773 13.25C4.58052 13.25 2.67773 15.1528 2.67773 17.5C2.67773 19.8472 4.58052 21.75 6.92773 21.75H17.9277C20.2749 21.75 22.1777 19.8472 22.1777 17.5C22.1777 15.1528 20.2749 13.25 17.9277 13.25H6.92773ZM14.6873 14.75H6.92773C5.40895 14.75 4.17773 15.9812 4.17773 17.5C4.17773 19.0188 5.40895 20.25 6.92773 20.25H14.6873C14.0576 19.5088 13.6777 18.5488 13.6777 17.5C13.6777 16.4512 14.0576 15.4912 14.6873 14.75ZM17.9277 20.25C19.4465 20.25 20.6777 19.0188 20.6777 17.5C20.6777 15.9812 19.4465 14.75 17.9277 14.75C16.409 14.75 15.1777 15.9812 15.1777 17.5C15.1777 19.0188 16.409 20.25 17.9277 20.25Z" fill="#161616"/>
</svg>
