<svg width="17" height="22" viewBox="0 0 17 22" fill="none" xmlns="http://www.w3.org/2000/svg">
<path d="M6.63776 18C6.63776 17.5858 6.97354 17.25 7.38776 17.25H9.38776C9.80197 17.25 10.1378 17.5858 10.1378 18C10.1378 18.4142 9.80197 18.75 9.38776 18.75H7.38776C6.97354 18.75 6.63776 18.4142 6.63776 18Z" fill="#161616"/>
<path fill-rule="evenodd" clip-rule="evenodd" d="M8.33201 0.25H8.4435C10.0461 0.249983 11.3251 0.249969 12.3281 0.38483C13.3644 0.524152 14.2178 0.819658 14.893 1.4948C15.5681 2.16994 15.8636 3.02335 16.0029 4.05961C16.1378 5.0627 16.1378 6.34166 16.1378 7.94426V14.0557C16.1378 15.6583 16.1378 16.9373 16.0029 17.9404C15.8636 18.9767 15.5681 19.8301 14.893 20.5052C14.2178 21.1803 13.3644 21.4759 12.3281 21.6152C11.3251 21.75 10.0461 21.75 8.4435 21.75H8.33202C6.72942 21.75 5.45046 21.75 4.44737 21.6152C3.41111 21.4759 2.55769 21.1803 1.88255 20.5052C1.20741 19.8301 0.911908 18.9767 0.772586 17.9404C0.637725 16.9373 0.637739 15.6583 0.637757 14.0558V7.94426C0.637739 6.34167 0.637725 5.0627 0.772586 4.05961C0.911908 3.02335 1.20741 2.16994 1.88255 1.4948C2.55769 0.819658 3.41111 0.524152 4.44737 0.38483C5.45045 0.249969 6.72942 0.249983 8.33201 0.25ZM4.64724 1.87145C3.77731 1.98841 3.2932 2.20547 2.94321 2.55546C2.59323 2.90544 2.37617 3.38955 2.25921 4.25949C2.13935 5.15099 2.13776 6.32888 2.13776 8V14C2.13776 15.6711 2.13935 16.849 2.25921 17.7405C2.37617 18.6105 2.59323 19.0946 2.94321 19.4445C3.2932 19.7945 3.77731 20.0116 4.64724 20.1285C5.53875 20.2484 6.71664 20.25 8.38776 20.25C10.0589 20.25 11.2368 20.2484 12.1283 20.1285C12.9982 20.0116 13.4823 19.7945 13.8323 19.4445C14.1823 19.0946 14.3993 18.6105 14.5163 17.7405C14.6362 16.849 14.6378 15.6711 14.6378 14V8C14.6378 6.32888 14.6362 5.15099 14.5163 4.25949C14.3993 3.38955 14.1823 2.90544 13.8323 2.55546C13.4823 2.20547 12.9982 1.98841 12.1283 1.87145C12.0879 1.86603 12.047 1.86085 12.0055 1.8559C11.9256 2.33304 11.8518 2.75073 11.7519 3.09118C11.6327 3.497 11.4541 3.87807 11.1104 4.18307C10.7548 4.49855 10.3453 4.63108 9.90659 4.6917C9.49301 4.74887 8.9826 4.75001 8.38781 4.75001C7.79301 4.75001 7.2826 4.74887 6.86902 4.6917C6.43035 4.63108 6.02082 4.49855 5.66524 4.18307C5.32147 3.87807 5.14286 3.497 5.02376 3.09118C4.92384 2.75073 4.85005 2.33304 4.77014 1.85589C4.72857 1.86084 4.68761 1.86603 4.64724 1.87145ZM6.27607 1.76455C6.34456 2.16581 6.39847 2.4487 6.46305 2.66877C6.53961 2.92961 6.60765 3.01392 6.66075 3.06103C6.71916 3.11285 6.81011 3.1693 7.07438 3.20583C7.36374 3.24582 7.75875 3.25001 8.38781 3.25001C9.01686 3.25001 9.41187 3.24582 9.70123 3.20583C9.9655 3.1693 10.0565 3.11285 10.1149 3.06103C10.168 3.01392 10.236 2.92961 10.3126 2.66877C10.3771 2.4487 10.431 2.16581 10.4995 1.76455C9.89639 1.75038 9.20039 1.75 8.38776 1.75C7.57517 1.75 6.8792 1.75038 6.27607 1.76455Z" fill="#161616"/>
</svg>
