<svg width="16" height="16" viewBox="0 0 16 16" fill="none" xmlns="http://www.w3.org/2000/svg">
<path fill-rule="evenodd" clip-rule="evenodd" d="M3.7053 6.80523C2.98362 6.80523 2.83301 6.94272 2.83301 7.60153V8.79597C2.83301 9.45477 2.98362 9.59227 3.7053 9.59227H5.44989V14.37C5.44989 15.0288 5.60051 15.1663 6.32219 15.1663H8.06677C8.78845 15.1663 8.93907 15.0288 8.93907 14.37V9.59227H10.898C11.4453 9.59227 11.5863 9.49515 11.7367 9.01473L12.1106 7.82029C12.3681 6.99731 12.2094 6.80523 11.2718 6.80523H8.93907V4.81449C8.93907 4.37471 9.32961 4.01819 9.81136 4.01819H12.294C13.0157 4.01819 13.1663 3.8807 13.1663 3.2219V1.6293C13.1663 0.970501 13.0157 0.833008 12.294 0.833008H9.81136C7.40259 0.833008 5.44989 2.61558 5.44989 4.81449V6.80523H3.7053Z" fill="#222222"/>
</svg>
