<svg width="25" height="24" viewBox="0 0 25 24" fill="none" xmlns="http://www.w3.org/2000/svg">
<path fill-rule="evenodd" clip-rule="evenodd" d="M1.32227 12C1.32227 17.928 6.14427 22.75 12.0723 22.75C18.0003 22.75 22.8223 17.928 22.8223 12C22.8223 6.07213 18.0005 1.25021 12.0727 1.25C6.14466 1.25 1.32227 6.072 1.32227 12ZM21.0455 9.75C21.2263 10.4705 21.3223 11.2243 21.3223 12C21.3223 12.7757 21.2263 13.5295 21.0455 14.25H16.6469C16.7592 13.5359 16.8233 12.7846 16.8233 11.9997C16.8233 11.2151 16.7592 10.464 16.6469 9.75H21.0455ZM20.5276 8.25H16.3307C15.7117 5.91321 14.6287 4.07877 13.7881 2.90957C16.8054 3.47793 19.3104 5.51661 20.5276 8.25ZM15.1213 9.75C15.2484 10.4613 15.3223 11.213 15.3223 11.9997C15.3223 12.7866 15.2484 13.5386 15.1212 14.25H9.02332C8.89617 13.5386 8.82227 12.7866 8.82227 11.9997C8.82227 11.2131 8.89613 10.4613 9.02321 9.75H15.1213ZM9.38131 8.25H14.7632C14.0383 5.82798 12.783 4.02825 12.0723 3.1427C11.3615 4.02759 10.1062 5.82765 9.38131 8.25ZM7.49854 9.75C7.38628 10.464 7.32227 11.2151 7.32227 11.9997C7.32227 12.7846 7.38633 13.5359 7.49867 14.25H3.09904C2.91828 13.5295 2.82227 12.7757 2.82227 12C2.82227 11.2243 2.91828 10.4705 3.09904 9.75H7.49854ZM3.61692 8.25H7.8147C8.43357 5.91313 9.51646 4.07864 10.3571 2.90945C7.33951 3.47764 4.83419 5.51642 3.61692 8.25ZM13.7881 21.0904C16.8054 20.522 19.3104 18.4834 20.5276 15.75H16.3307C15.7117 18.0869 14.6288 19.9213 13.7881 21.0904ZM12.0723 20.8568C12.783 19.9719 14.0382 18.1721 14.7631 15.75H9.38153C10.1064 18.1717 11.3616 19.9713 12.0723 20.8568ZM10.3581 21.0907C9.51741 19.9217 8.4341 18.0871 7.81495 15.75H3.61692C4.83432 18.4839 7.34005 20.5228 10.3581 21.0907Z" fill="#222222"/>
</svg>
