<svg width="36" height="36" viewBox="0 0 36 36" fill="none" xmlns="http://www.w3.org/2000/svg">
<g clip-path="url(#clip0_263_663)">
<path d="M35.2821 18.4555C35.2821 17.0322 35.1639 15.9936 34.9081 14.9165H18.2764V21.3405H28.0388C27.8421 22.937 26.7792 25.3412 24.4173 26.9567L24.3842 27.1718L29.6428 31.1527L30.0071 31.1883C33.3531 28.1685 35.2821 23.7255 35.2821 18.4555" fill="#222222"/>
<path d="M18.2769 35.3812C23.0597 35.3812 27.0749 33.8424 30.0077 31.1882L24.4178 26.9567C22.922 27.9761 20.9143 28.6877 18.2769 28.6877C13.5925 28.6877 9.61669 25.6681 8.19941 21.4944L7.99167 21.5116L2.52366 25.6469L2.45215 25.8411C5.36513 31.4958 11.3486 35.3812 18.2769 35.3812Z" fill="#222222"/>
<path d="M8.19925 21.4944C7.82528 20.4173 7.60886 19.2632 7.60886 18.0708C7.60886 16.8782 7.82529 15.7242 8.17957 14.6472L8.16967 14.4178L2.63312 10.2161L2.45198 10.3003C1.2514 12.6468 0.5625 15.2819 0.5625 18.0708C0.5625 20.8597 1.2514 23.4946 2.45198 25.8412L8.19925 21.4944" fill="#222222"/>
<path d="M18.2769 7.45381C21.6032 7.45381 23.847 8.85787 25.1264 10.0312L30.1258 5.2612C27.0554 2.47231 23.0597 0.760498 18.2769 0.760498C11.3486 0.760498 5.36513 4.64569 2.45215 10.3004L8.17974 14.6473C9.61669 10.4735 13.5925 7.45381 18.2769 7.45381" fill="#222222"/>
</g>
<defs>
<clipPath id="clip0_263_663">
<rect width="34.72" height="34.72" fill="white" transform="translate(0.5625 0.710693)"/>
</clipPath>
</defs>
</svg>
