<svg width="32" height="32" viewBox="0 0 32 32" fill="none" xmlns="http://www.w3.org/2000/svg">
<path d="M20.5939 8.80496C20.3788 8.96747 19.7364 9.45268 19.3662 9.74165C18.6245 10.3204 17.6391 11.1112 16.6566 11.9643C15.6691 12.8217 14.7073 13.7224 14.0004 14.5225C13.6459 14.9237 13.3765 15.2762 13.2011 15.567C13.0362 15.8406 13.002 16.0021 13.002 16.0021C13.002 16.0021 13.0362 16.159 13.2011 16.4325C13.3765 16.7233 13.6458 17.0758 14.0004 17.477C14.7073 18.2772 15.6691 19.1778 16.6566 20.0352C17.6391 20.8883 18.6246 21.6791 19.3662 22.2579C19.7365 22.5468 20.3779 23.0314 20.5931 23.1939C21.0378 23.5214 21.1337 24.1481 20.8062 24.5928C20.4787 25.0375 19.8527 25.1325 19.408 24.805L19.4049 24.8026C19.1794 24.6324 18.5137 24.1295 18.1357 23.8346C17.3774 23.2427 16.3628 22.4288 15.3454 21.5454C14.3329 20.6663 13.2946 19.6988 12.5016 18.8013C12.1061 18.3537 11.7505 17.9 11.4883 17.4651C11.2427 17.0576 11.001 16.5418 11.001 15.9998C11.001 15.4577 11.2427 14.9419 11.4883 14.5345C11.7505 14.0996 12.1061 13.6459 12.5016 13.1983C13.2946 12.3008 14.3328 11.3332 15.3453 10.4541C16.3628 9.5707 17.3773 8.7568 18.1357 8.16496C18.5138 7.86988 19.1793 7.36725 19.4044 7.19719L19.4073 7.19504C19.852 6.86753 20.4786 6.96205 20.8061 7.40675C21.1336 7.85143 21.0386 8.47743 20.5939 8.80496Z" fill="#222222"/>
</svg>
