<svg width="32" height="32" viewBox="0 0 32 32" fill="none" xmlns="http://www.w3.org/2000/svg">
<path d="M11.4061 23.195C11.6212 23.0325 12.2636 22.5473 12.6338 22.2583C13.3755 21.6796 14.3609 20.8888 15.3434 20.0357C16.3309 19.1783 17.2927 18.2776 17.9996 17.4775C18.3541 17.0763 18.6235 16.7238 18.7989 16.433C18.9638 16.1594 18.998 15.9979 18.998 15.9979C18.998 15.9979 18.9638 15.841 18.7989 15.5675C18.6235 15.2767 18.3542 14.9242 17.9996 14.523C17.2927 13.7228 16.3309 12.8222 15.3434 11.9648C14.3609 11.1117 13.3754 10.3209 12.6338 9.74213C12.2635 9.45316 11.6221 8.96862 11.4069 8.80611C10.9622 8.4786 10.8663 7.85192 11.1938 7.40723C11.5213 6.96253 12.1473 6.86753 12.592 7.19504L12.5951 7.19739C12.8206 7.36764 13.4863 7.87047 13.8643 8.16543C14.6226 8.75726 15.6372 9.57117 16.6546 10.4546C17.6671 11.3337 18.7054 12.3012 19.4984 13.1987C19.8939 13.6463 20.2495 14.1 20.5117 14.5349C20.7573 14.9424 20.999 15.4582 20.999 16.0002C20.999 16.5423 20.7573 17.0581 20.5117 17.4655C20.2495 17.9004 19.8939 18.3541 19.4984 18.8017C18.7054 19.6992 17.6672 20.6668 16.6547 21.5459C15.6372 22.4293 14.6227 23.2432 13.8643 23.835C13.4862 24.1301 12.8207 24.6327 12.5956 24.8028L12.5927 24.805C12.148 25.1325 11.5214 25.0379 11.1939 24.5933C10.8664 24.1486 10.9614 23.5226 11.4061 23.195Z" fill="#222222"/>
</svg>
