<svg width="163" height="32" viewBox="0 0 163 32" fill="none" xmlns="http://www.w3.org/2000/svg">
<path d="M58.8078 14.6861C58.8078 17.1895 57.8082 19.5905 56.029 21.3607C54.2498 23.1309 51.8367 24.1254 49.3205 24.1254C47.1182 24.0995 44.9919 23.3203 43.2989 21.9187L42.2804 21.0806C42.0825 20.9203 41.8301 20.842 41.5757 20.8621C41.2859 20.8725 41.0084 20.9809 40.7889 21.1695L40.8155 21.1382C39.7399 22.2791 38.396 23.136 36.9049 23.6318C35.4138 24.1276 33.8222 24.2467 32.2733 23.9784C30.7244 23.7102 29.2668 23.0629 28.0318 22.095C26.7967 21.1271 25.823 19.8688 25.1981 18.4334C24.5733 16.998 24.3169 15.4306 24.4521 13.8721C24.5874 12.3137 25.1099 10.8132 25.9728 9.50558C26.8357 8.198 28.0118 7.1244 29.3953 6.38139C30.7788 5.63839 32.3263 5.2493 33.8985 5.24914C35.1968 5.23621 36.4833 5.49504 37.6745 6.00883C38.8657 6.52262 39.9351 7.2799 40.8131 8.2315L40.8589 8.27712C41.067 8.41329 41.3123 8.48207 41.5612 8.47403C41.7989 8.47898 42.034 8.42361 42.2442 8.31314L42.4228 8.18348C44.3271 6.52901 46.5257 5.24914 49.3181 5.24914C50.564 5.24883 51.7977 5.49267 52.9489 5.96675C54.1001 6.44083 55.1461 7.13586 56.0273 8.01216C56.9085 8.88846 57.6076 9.92887 58.0847 11.074C58.5618 12.2191 58.8075 13.4465 58.8078 14.6861ZM45.5145 10.0108C43.813 11.6197 43.0334 11.9871 41.6529 11.9919C40.5601 11.9436 39.5103 11.5537 38.653 10.8777C38.2003 10.4349 37.7164 10.0248 37.2049 9.65064C36.4809 9.13917 36.1237 8.88224 35.6265 8.69014C35.0604 8.50826 34.4665 8.42697 33.872 8.45001C32.366 8.50524 27.8383 10.2438 27.8383 14.6717C27.8383 18.1079 30.4231 20.8957 33.872 20.8957C35.851 20.8957 37.0529 20.0721 38.4406 18.8114L38.7568 18.5713C38.7568 18.5713 41.6192 16.5014 44.4695 18.5041L45.3093 19.2509C46.3986 20.2885 47.8439 20.8749 49.3519 20.8909C52.8055 20.8909 55.4024 18.0622 55.5376 14.6813C55.5376 10.748 51.8377 8.24591 49.3519 8.43801C47.8073 8.57488 46.7284 8.85823 45.5145 10.0108Z" fill="#94D401"/>
<path d="M2.78387 8.01059C3.65321 7.11741 4.69726 6.41094 5.85163 5.93476C7.006 5.45858 8.2462 5.22279 9.4957 5.24194C10.7452 5.22279 11.9854 5.45858 13.1398 5.93476C14.2941 6.41094 15.3382 7.11741 16.2075 8.01059C17.1052 8.87552 17.8153 9.9143 18.2939 11.0628C18.7725 12.2114 19.0095 13.4453 18.9902 14.6885V22.1516C19.0095 23.3948 18.7725 24.6287 18.2939 25.7772C17.8153 26.9257 17.1052 27.9645 16.2075 28.8295C15.3378 29.7222 14.2937 30.4283 13.1394 30.9045C11.9851 31.3806 10.7451 31.6167 9.4957 31.5981C7.54273 31.6138 5.63524 31.0118 4.04853 29.8788C2.46455 28.7893 1.25884 27.2382 0.597283 25.4389H4.10404C4.66826 26.3556 5.4603 27.1122 6.40381 27.6358C7.34733 28.1594 8.41051 28.4324 9.49087 28.4285C10.3238 28.441 11.1505 28.2846 11.9206 27.9688C12.6907 27.6529 13.3881 27.1843 13.9702 26.5915C14.5705 26.0185 15.0456 25.3284 15.3657 24.5645C15.6859 23.8006 15.8443 22.9792 15.831 22.1516C15.8301 22.0769 15.8253 22.0024 15.8165 21.9283C15.8165 21.8394 15.8021 21.777 15.8021 21.7362C14.0806 23.304 11.8246 24.1624 9.49087 24.1374C8.24235 24.1562 7.00318 23.9205 5.8497 23.4447C4.69622 22.969 3.65285 22.2633 2.78387 21.3712C1.88556 20.5057 1.17516 19.4661 0.696536 18.3167C0.217916 17.1673 -0.0187498 15.9325 0.00115952 14.6885C-0.0180872 13.4453 0.2189 12.2114 0.697501 11.0628C1.1761 9.9143 1.88616 8.87552 2.78387 8.01059ZM13.9751 10.2317C13.3951 9.63519 12.6984 9.16315 11.928 8.84474C11.1576 8.52633 10.3298 8.36829 9.4957 8.38038C8.66157 8.36829 7.83379 8.52633 7.0634 8.84474C6.29301 9.16315 5.59633 9.63519 5.01632 10.2317C4.4165 10.8086 3.94191 11.5018 3.62187 12.2683C3.30182 13.0348 3.14312 13.8585 3.15555 14.6885C3.14252 15.5164 3.30101 16.3381 3.62115 17.1024C3.94129 17.8666 4.41621 18.5571 5.01632 19.1308C5.59855 19.7233 6.29602 20.1915 7.06616 20.507C7.8363 20.8224 8.66296 20.9783 9.4957 20.9654C10.3284 20.9783 11.1551 20.8224 11.9252 20.507C12.6954 20.1915 13.3928 19.7233 13.9751 19.1308C14.5752 18.5571 15.0501 17.8666 15.3702 17.1024C15.6904 16.3381 15.8489 15.5164 15.8358 14.6885C15.8483 13.8585 15.6896 13.0348 15.3695 12.2683C15.0495 11.5018 14.5749 10.8086 13.9751 10.2317Z" fill="white"/>
<path d="M64.1986 14.6885V0L67.3361 1.57042V14.6885C67.3345 15.5173 67.4974 16.3383 67.8155 17.1043C68.1335 17.8704 68.6005 18.5664 69.1896 19.1525C69.7786 19.7386 70.4782 20.2032 71.2481 20.5196C72.018 20.8361 72.8432 20.9982 73.6763 20.9966V24.135C72.4279 24.1545 71.1887 23.9194 70.0351 23.444C68.8816 22.9687 67.8382 22.2632 66.9693 21.3712C66.0731 20.5046 65.365 19.4646 64.8884 18.3153C64.4119 17.1659 64.1771 15.9316 64.1986 14.6885Z" fill="white"/>
<path d="M93.3534 14.6885V25.1723L90.199 23.5731V21.7362C88.4648 23.3022 86.2007 24.1597 83.8588 24.1374C82.6095 24.1569 81.3694 23.9215 80.2151 23.4457C79.0607 22.9699 78.0166 22.2639 77.147 21.3712C76.2498 20.5059 75.54 19.467 75.0614 18.3186C74.5829 17.1701 74.3456 15.9364 74.3643 14.6933C74.3456 13.4502 74.5829 12.2164 75.0614 11.068C75.54 9.91951 76.2498 8.88067 77.147 8.01539C78.028 7.1376 79.0742 6.44122 80.2259 5.96609C81.3775 5.49096 82.6121 5.2464 83.8588 5.2464C85.1056 5.2464 86.3401 5.49096 87.4918 5.96609C88.6435 6.44122 89.6897 7.1376 90.5707 8.01539C91.4678 8.87977 92.1775 9.91777 92.6561 11.0654C93.1347 12.2131 93.372 13.4461 93.3534 14.6885ZM88.3334 10.2462C87.1425 9.06955 85.5323 8.40923 83.854 8.40923C82.1757 8.40923 80.5655 9.06955 79.3746 10.2462C78.7746 10.8198 78.2999 11.5103 77.9802 12.2746C77.6604 13.039 77.5025 13.8607 77.5163 14.6885C77.5487 16.3399 78.2307 17.9127 79.416 19.0692C80.6013 20.2257 82.1951 20.8735 83.8552 20.8735C85.5153 20.8735 87.1092 20.2257 88.2944 19.0692C89.4797 17.9127 90.1618 16.3399 90.1942 14.6885C90.2075 13.8605 90.0491 13.0387 89.729 12.2744C89.4088 11.5101 88.9337 10.8196 88.3334 10.2462Z" fill="white"/>
<path d="M96.4498 12.585C96.4371 11.6194 96.6233 10.6616 96.9969 9.77035C97.3704 8.87915 97.9235 8.0735 98.6219 7.40307C99.3066 6.7182 100.121 6.17473 101.017 5.80388C101.914 5.43304 102.875 5.24213 103.846 5.24213C104.817 5.24213 105.778 5.43304 106.675 5.80388C107.571 6.17473 108.385 6.7182 109.07 7.40307C109.768 8.0735 110.321 8.87915 110.695 9.77035C111.068 10.6616 111.255 11.6194 111.242 12.585V24.135H108.056V12.585C108.053 11.4784 107.61 10.418 106.825 9.63488C106.039 8.85176 104.974 8.40945 103.862 8.40439C103.307 8.3992 102.757 8.5059 102.245 8.71804C101.734 8.93017 101.27 9.24334 100.883 9.63863C100.482 10.0178 100.165 10.4751 99.9495 10.9821C99.7344 11.4891 99.6267 12.0347 99.6332 12.585V24.135L96.4498 25.7054V12.585Z" fill="white"/>
<path d="M122.82 5.24194C124.528 5.24375 126.205 5.70055 127.676 6.56491C129.147 7.42927 130.358 8.66967 131.185 10.1573H127.256C126.673 9.58162 125.98 9.12782 125.218 8.82264C124.456 8.51747 123.641 8.36709 122.82 8.38037C121.988 8.36741 121.162 8.5251 120.394 8.84362C119.625 9.16214 118.931 9.63467 118.355 10.2317C117.76 10.8112 117.289 11.5052 116.972 12.2714C116.655 13.0376 116.498 13.86 116.511 14.6885C116.509 15.5133 116.671 16.3304 116.987 17.0928C117.304 17.8552 117.768 18.5479 118.355 19.1311C118.941 19.7144 119.637 20.1766 120.403 20.4914C121.17 20.8062 121.991 20.9672 122.82 20.9653C123.826 20.9738 124.82 20.7407 125.716 20.2858C126.589 19.8482 127.343 19.2083 127.915 18.42H131.535C130.81 20.1047 129.604 21.5407 128.067 22.5502C126.518 23.5979 124.685 24.1508 122.813 24.135C121.567 24.1547 120.33 23.9195 119.179 23.444C118.028 22.9686 116.988 22.2631 116.122 21.3712C115.229 20.5039 114.523 19.4643 114.047 18.3161C113.572 17.1678 113.337 15.935 113.357 14.6933C113.337 13.4515 113.572 12.2187 114.047 11.0705C114.523 9.9222 115.229 8.88262 116.122 8.01538C116.988 7.12083 118.029 6.41298 119.181 5.93586C120.333 5.45873 121.572 5.22253 122.82 5.24194Z" fill="white"/>
<path d="M135.155 8.01058C136.036 7.13279 137.082 6.43641 138.234 5.96128C139.386 5.48615 140.62 5.24159 141.867 5.24159C143.114 5.24159 144.348 5.48615 145.5 5.96128C146.651 6.43641 147.698 7.13279 148.579 8.01058C149.476 8.87552 150.186 9.9143 150.665 11.0628C151.144 12.2114 151.381 13.4453 151.361 14.6885C151.359 15.2144 151.309 15.7391 151.214 16.2565H135.739C136.084 17.6106 136.876 18.8104 137.987 19.6641C139.098 20.5178 140.465 20.9759 141.869 20.9653C142.736 20.9842 143.598 20.8168 144.394 20.4745C145.19 20.1322 145.903 19.6231 146.484 18.9819H150.324C149.53 20.5321 148.321 21.8338 146.83 22.7432C145.339 23.6525 143.625 24.1342 141.876 24.135C140.626 24.1561 139.384 23.9217 138.228 23.4463C137.072 22.9709 136.026 22.2647 135.155 21.3712C134.257 20.5062 133.547 19.4674 133.069 18.3189C132.59 17.1704 132.353 15.9365 132.372 14.6933C132.352 13.4493 132.589 12.2144 133.068 11.065C133.546 9.91563 134.257 8.87607 135.155 8.01058ZM135.737 13.118H147.999C147.676 11.7609 146.89 10.5575 145.774 9.71307C144.654 8.84932 143.277 8.38059 141.86 8.38059C140.442 8.38059 139.065 8.84932 137.945 9.71307C136.836 10.5603 136.057 11.7635 135.739 13.118H135.737Z" fill="white"/>
<path d="M153.535 14.6885C153.516 13.4465 153.751 12.2137 154.227 11.0654C154.703 9.91711 155.41 8.87762 156.304 8.01059C157.169 7.1169 158.211 6.40994 159.363 5.93365C160.515 5.45736 161.753 5.22191 163.001 5.24194V8.38038C162.169 8.36742 161.343 8.52511 160.575 8.84363C159.807 9.16215 159.113 9.63467 158.536 10.2317C157.94 10.8109 157.469 11.5048 157.152 12.2711C156.835 13.0373 156.679 13.8599 156.692 14.6885V24.135L153.535 25.7054V14.6885Z" fill="white"/>
</svg>
