<svg width="25" height="24" viewBox="0 0 25 24" fill="none" xmlns="http://www.w3.org/2000/svg">
<path d="M11.9739 1.25H10.8074C8.85648 1.24999 7.32004 1.24998 6.11948 1.40242C4.8905 1.55847 3.90027 1.88575 3.11615 2.62631C2.32597 3.37259 1.97123 4.32468 1.80317 5.50521C1.64059 6.64729 1.64061 8.1054 1.64063 9.94067V14.0593C1.64061 15.8946 1.64059 17.3527 1.80317 18.4948C1.97123 19.6753 2.32597 20.6274 3.11617 21.3737C3.90029 22.1142 4.8905 22.4415 6.11947 22.5976C7.32004 22.75 8.85649 22.75 10.8074 22.75H11.3906C11.8048 22.75 12.1406 22.4142 12.1406 22C12.1406 21.5858 11.8048 21.25 11.3906 21.25H10.8612C8.84463 21.25 7.40349 21.2486 6.30842 21.1095C5.23074 20.9727 4.60243 20.7141 4.14607 20.2831C3.69577 19.8579 3.43027 19.2814 3.2882 18.2834C3.14241 17.2592 3.14063 15.908 3.14063 14V10C3.14063 8.09197 3.14241 6.74077 3.2882 5.71661C3.43027 4.71864 3.69577 4.14213 4.14608 3.71683C4.60245 3.28582 5.23074 3.02731 6.30842 2.89047C7.4035 2.75142 8.84463 2.75 10.8612 2.75H11.92C13.9366 2.75 15.3778 2.75142 16.4728 2.89047C17.5505 3.02731 18.1788 3.28582 18.6352 3.71683C19.0855 4.14213 19.351 4.71864 19.493 5.71661C19.6388 6.74077 19.6406 8.09197 19.6406 10V11C19.6406 11.4142 19.9764 11.75 20.3906 11.75C20.8048 11.75 21.1406 11.4142 21.1406 11V9.94069C21.1406 8.10541 21.1407 6.64729 20.9781 5.50521C20.81 4.32467 20.4553 3.37259 19.6651 2.62631C18.881 1.88575 17.8908 1.55847 16.6618 1.40242C15.4612 1.24998 13.9248 1.24999 11.9739 1.25Z" fill="#161616"/>
<path d="M7.39063 6.25C6.97641 6.25 6.64063 6.58579 6.64063 7C6.64063 7.41421 6.97641 7.75 7.39063 7.75H15.3906C15.8048 7.75 16.1406 7.41421 16.1406 7C16.1406 6.58579 15.8048 6.25 15.3906 6.25H7.39063Z" fill="#161616"/>
<path d="M6.64063 12C6.64063 11.5858 6.97641 11.25 7.39063 11.25H15.3906C15.8048 11.25 16.1406 11.5858 16.1406 12C16.1406 12.4142 15.8048 12.75 15.3906 12.75H7.39063C6.97641 12.75 6.64063 12.4142 6.64063 12Z" fill="#161616"/>
<path fill-rule="evenodd" clip-rule="evenodd" d="M21.7803 13.9083C20.9002 13.0306 19.474 13.0306 18.5939 13.9083L14.9101 17.5818C14.5193 17.9715 14.2548 18.4696 14.1512 19.0114L13.6732 21.2378C13.4819 22.1292 14.277 22.9131 15.1619 22.7216L17.4065 22.2356C17.9481 22.1323 18.4466 21.8692 18.8371 21.4798L22.4773 17.7814C23.3559 16.9023 23.355 15.4786 22.4746 14.6006L21.7803 13.9083ZM19.6531 14.9704C19.9478 14.6765 20.4264 14.6765 20.7211 14.9704L21.4154 15.6628C21.7089 15.9555 21.7089 16.4292 21.4154 16.7219L17.7757 20.4198C17.5971 20.5971 17.3687 20.7169 17.1203 20.7632C17.1131 20.7645 17.106 20.7659 17.0989 20.7675L15.2211 21.174L15.6197 19.3173L15.6236 19.298C15.6699 19.0505 15.7903 18.8224 15.9693 18.644L19.6531 14.9704Z" fill="#161616"/>
</svg>
