<svg width="16" height="16" viewBox="0 0 16 16" fill="none" xmlns="http://www.w3.org/2000/svg">
<path d="M5.16699 6.66699C5.16699 6.39085 4.94313 6.16699 4.66699 6.16699C4.39085 6.16699 4.16699 6.39085 4.16699 6.66699V11.3337C4.16699 11.6098 4.39085 11.8337 4.66699 11.8337C4.94313 11.8337 5.16699 11.6098 5.16699 11.3337V6.66699Z" fill="#D0D0C8"/>
<path d="M7.33366 6.16699C7.60974 6.16699 7.83356 6.39075 7.83366 6.66681C8.25149 6.35296 8.77086 6.16699 9.33366 6.16699C10.7144 6.16699 11.8337 7.28628 11.8337 8.66699V11.3337C11.8337 11.6098 11.6098 11.8337 11.3337 11.8337C11.0575 11.8337 10.8337 11.6098 10.8337 11.3337V8.66699C10.8337 7.83856 10.1621 7.16699 9.33366 7.16699C8.50523 7.16699 7.83366 7.83856 7.83366 8.66699V11.3337C7.83366 11.6098 7.6098 11.8337 7.33366 11.8337C7.05752 11.8337 6.83366 11.6098 6.83366 11.3337V6.66699C6.83366 6.39085 7.05752 6.16699 7.33366 6.16699Z" fill="#D0D0C8"/>
<path d="M5.33903 4.66699C5.33903 5.03518 5.04055 5.33366 4.67236 5.33366H4.66638C4.29819 5.33366 3.99971 5.03518 3.99971 4.66699C3.99971 4.2988 4.29819 4.00033 4.66638 4.00033H4.67236C5.04055 4.00033 5.33903 4.2988 5.33903 4.66699Z" fill="#D0D0C8"/>
<path fill-rule="evenodd" clip-rule="evenodd" d="M8.03847 1.16699H7.96221C6.50175 1.16698 5.35461 1.16698 4.45901 1.28739C3.54124 1.41078 2.81307 1.6688 2.24093 2.24093C1.6688 2.81307 1.41078 3.54124 1.28739 4.45901C1.16698 5.35462 1.16698 6.50174 1.16699 7.96221V8.03844C1.16698 9.49891 1.16698 10.646 1.28739 11.5416C1.41078 12.4594 1.6688 13.1876 2.24093 13.7597C2.81307 14.3318 3.54124 14.5899 4.45901 14.7133C5.35462 14.8337 6.50173 14.8337 7.96219 14.8337H8.03844C9.4989 14.8337 10.646 14.8337 11.5416 14.7133C12.4594 14.5899 13.1876 14.3318 13.7597 13.7597C14.3318 13.1876 14.5899 12.4594 14.7133 11.5416C14.8337 10.646 14.8337 9.49892 14.8337 8.03846V7.96221C14.8337 6.50175 14.8337 5.35462 14.7133 4.45901C14.5899 3.54124 14.3318 2.81307 13.7597 2.24093C13.1876 1.6688 12.4594 1.41078 11.5416 1.28739C10.646 1.16698 9.49893 1.16698 8.03847 1.16699ZM2.94804 2.94804C3.3034 2.59268 3.78537 2.38695 4.59226 2.27847C5.41352 2.16805 6.49341 2.16699 8.00033 2.16699C9.50724 2.16699 10.5871 2.16805 11.4084 2.27847C12.2153 2.38695 12.6972 2.59268 13.0526 2.94804C13.408 3.3034 13.6137 3.78537 13.7222 4.59226C13.8326 5.41352 13.8337 6.49341 13.8337 8.00033C13.8337 9.50724 13.8326 10.5871 13.7222 11.4084C13.6137 12.2153 13.408 12.6972 13.0526 13.0526C12.6972 13.408 12.2153 13.6137 11.4084 13.7222C10.5871 13.8326 9.50724 13.8337 8.00033 13.8337C6.49341 13.8337 5.41352 13.8326 4.59226 13.7222C3.78537 13.6137 3.3034 13.408 2.94804 13.0526C2.59268 12.6972 2.38695 12.2153 2.27847 11.4084C2.16805 10.5871 2.16699 9.50724 2.16699 8.00033C2.16699 6.49341 2.16805 5.41352 2.27847 4.59226C2.38695 3.78537 2.59268 3.3034 2.94804 2.94804Z" fill="#D0D0C8"/>
</svg>
