<svg width="18" height="19" viewBox="0 0 18 19" fill="none" xmlns="http://www.w3.org/2000/svg">
<g clip-path="url(#clip0_263_659)">
<path d="M9 1.60352C6.0975 1.60352 3.75 3.95102 3.75 6.85351C3.75 10.791 9 16.6035 9 16.6035C9 16.6035 14.25 10.791 14.25 6.85351C14.25 3.95102 11.9025 1.60352 9 1.60352ZM5.25 6.85351C5.25 4.78352 6.93 3.10352 9 3.10352C11.07 3.10352 12.75 4.78352 12.75 6.85351C12.75 9.01351 10.59 12.246 9 14.2635C7.44 12.261 5.25 8.99101 5.25 6.85351Z" fill="#303030"/>
<path d="M9 8.72852C10.0355 8.72852 10.875 7.88905 10.875 6.85352C10.875 5.81798 10.0355 4.97852 9 4.97852C7.96447 4.97852 7.125 5.81798 7.125 6.85352C7.125 7.88905 7.96447 8.72852 9 8.72852Z" fill="#303030"/>
</g>
<defs>
<clipPath id="clip0_263_659">
<rect width="18" height="18" fill="white" transform="translate(0 0.103516)"/>
</clipPath>
</defs>
</svg>
