<svg width="163" height="32" viewBox="0 0 163 32" fill="none" xmlns="http://www.w3.org/2000/svg">
<g clip-path="url(#clip0_263_670)">
<path d="M58.8068 14.6859C58.8068 17.1894 57.8073 19.5903 56.0281 21.3605C54.2488 23.1308 51.8357 24.1253 49.3195 24.1253C47.1172 24.0994 44.9909 23.3202 43.2979 21.9185L42.2795 21.0805C42.0816 20.9201 41.8292 20.8419 41.5747 20.862C41.285 20.8724 41.0074 20.9808 40.788 21.1693L40.8145 21.1381C39.7389 22.279 38.3951 23.1359 36.9039 23.6316C35.4128 24.1274 33.8212 24.2465 32.2723 23.9783C30.7234 23.71 29.2658 23.0628 28.0308 22.0949C26.7958 21.1269 25.822 19.8686 25.1971 18.4333C24.5723 16.9979 24.3159 15.4304 24.4512 13.872C24.5864 12.3136 25.109 10.813 25.9719 9.50544C26.8347 8.19785 28.0109 7.12425 29.3944 6.38125C30.7779 5.63824 32.3253 5.24915 33.8975 5.249C35.1958 5.23606 36.4823 5.49489 37.6735 6.00868C38.8648 6.52248 39.9341 7.27975 40.8121 8.23135L40.8579 8.27698C41.066 8.41315 41.3113 8.48193 41.5603 8.47388C41.798 8.47884 42.033 8.42347 42.2433 8.313L42.4219 8.18333C44.3261 6.52887 46.5247 5.249 49.3171 5.249C50.563 5.24868 51.7967 5.49252 52.9479 5.9666C54.0991 6.44068 55.1451 7.13572 56.0263 8.01202C56.9075 8.88832 57.6066 9.92872 58.0837 11.0738C58.5608 12.2189 58.8065 13.4463 58.8068 14.6859ZM45.5135 10.0107C43.812 11.6195 43.0325 11.9869 41.652 11.9917C40.5591 11.9435 39.5094 11.5536 38.652 10.8775C38.1994 10.4347 37.7154 10.0246 37.204 9.6505C36.4799 9.13903 36.1227 8.88209 35.6256 8.68999C35.0594 8.50811 34.4655 8.42683 33.871 8.44987C32.365 8.5051 27.8373 10.2436 27.8373 14.6715C27.8373 18.1077 30.4222 20.8956 33.871 20.8956C35.85 20.8956 37.0519 20.0719 38.4397 18.8113L38.7558 18.5712C38.7558 18.5712 41.6182 16.5013 44.4685 18.5039L45.3084 19.2507C46.3976 20.2884 47.8429 20.8747 49.3509 20.8908C52.8046 20.8908 55.4014 18.0621 55.5366 14.6811C55.5366 10.7479 51.8368 8.24576 49.3509 8.43786C47.8063 8.57473 46.7275 8.85808 45.5135 10.0107Z" fill="#94D401"/>
<path d="M2.7829 8.01045C3.65223 7.11727 4.69629 6.4108 5.85066 5.93462C7.00503 5.45844 8.24522 5.22265 9.49472 5.2418C10.7442 5.22265 11.9844 5.45844 13.1388 5.93462C14.2932 6.4108 15.3372 7.11727 16.2065 8.01045C17.1043 8.87538 17.8143 9.91416 18.2929 11.0627C18.7715 12.2112 19.0085 13.4452 18.9893 14.6883V22.1514C19.0085 23.3946 18.7715 24.6285 18.2929 25.7771C17.8143 26.9256 17.1043 27.9644 16.2065 28.8293C15.3369 29.722 14.2927 30.4282 13.1385 30.9044C11.9842 31.3805 10.7441 31.6166 9.49472 31.598C7.54175 31.6137 5.63426 31.0116 4.04755 29.8787C2.46358 28.7892 1.25787 27.238 0.596307 25.4388H4.10306C4.66728 26.3554 5.45932 27.112 6.40284 27.6357C7.34635 28.1593 8.40953 28.4323 9.48989 28.4283C10.3228 28.4409 11.1495 28.2844 11.9196 27.9686C12.6898 27.6528 13.3872 27.1842 13.9693 26.5914C14.5695 26.0183 15.0446 25.3283 15.3648 24.5644C15.6849 23.8004 15.8433 22.979 15.83 22.1514C15.8291 22.0768 15.8243 22.0023 15.8156 21.9281C15.8156 21.8393 15.8011 21.7768 15.8011 21.736C14.0796 23.3039 11.8236 24.1623 9.48989 24.1373C8.24137 24.1561 7.00221 23.9203 5.84873 23.4446C4.69524 22.9689 3.65188 22.2632 2.7829 21.371C1.88459 20.5055 1.17418 19.466 0.695559 18.3166C0.216939 17.1672 -0.0197263 15.9323 0.000182962 14.6883C-0.0190637 13.4452 0.217924 12.2112 0.696524 11.0627C1.17512 9.91416 1.88519 8.87538 2.7829 8.01045ZM13.9741 10.2316C13.3941 9.63505 12.6974 9.16301 11.927 8.8446C11.1566 8.52619 10.3289 8.36816 9.49472 8.38024C8.66059 8.36816 7.83281 8.52619 7.06242 8.8446C6.29203 9.16301 5.59535 9.63505 5.01535 10.2316C4.41552 10.8085 3.94094 11.5016 3.62089 12.2682C3.30085 13.0347 3.14214 13.8584 3.15457 14.6883C3.14154 15.5162 3.30004 16.3379 3.62018 17.1022C3.94031 17.8665 4.41524 18.557 5.01535 19.1307C5.59757 19.7232 6.29504 20.1914 7.06518 20.5068C7.83532 20.8222 8.66199 20.9782 9.49472 20.9652C10.3275 20.9782 11.1541 20.8222 11.9243 20.5068C12.6944 20.1914 13.3919 19.7232 13.9741 19.1307C14.5742 18.557 15.0491 17.8665 15.3693 17.1022C15.6894 16.3379 15.8479 15.5162 15.8349 14.6883C15.8473 13.8584 15.6886 13.0347 15.3686 12.2682C15.0485 11.5016 14.5739 10.8085 13.9741 10.2316Z" fill="white"/>
<path d="M64.1976 14.6885V0L67.3351 1.57042V14.6885C67.3335 15.5173 67.4965 16.3383 67.8145 17.1043C68.1326 17.8704 68.5995 18.5664 69.1886 19.1525C69.7776 19.7386 70.4772 20.2032 71.2471 20.5196C72.0171 20.8361 72.8422 20.9982 73.6753 20.9966V24.135C72.4269 24.1545 71.1877 23.9194 70.0342 23.444C68.8806 22.9687 67.8372 22.2632 66.9683 21.3712C66.0722 20.5046 65.364 19.4646 64.8875 18.3153C64.4109 17.1659 64.1762 15.9316 64.1976 14.6885Z" fill="white"/>
<path d="M93.3524 14.6887V25.1725L90.198 23.5733V21.7363C88.4638 23.3023 86.1997 24.1599 83.8579 24.1376C82.6085 24.157 81.3684 23.9216 80.2141 23.4459C79.0597 22.9701 78.0156 22.2641 77.146 21.3713C76.2488 20.5061 75.539 19.4672 75.0605 18.3188C74.5819 17.1703 74.3447 15.9366 74.3633 14.6935C74.3447 13.4504 74.5819 12.2166 75.0605 11.0681C75.539 9.91969 76.2488 8.88085 77.146 8.01557C78.027 7.13778 79.0732 6.4414 80.2249 5.96627C81.3766 5.49114 82.6111 5.24658 83.8579 5.24658C85.1046 5.24658 86.3392 5.49114 87.4908 5.96627C88.6425 6.4414 89.6887 7.13778 90.5697 8.01557C91.4668 8.87995 92.1765 9.91795 92.6551 11.0656C93.1337 12.2133 93.371 13.4463 93.3524 14.6887ZM88.3324 10.2463C87.1415 9.06973 85.5313 8.40941 83.853 8.40941C82.1747 8.40941 80.5645 9.06973 79.3737 10.2463C78.7736 10.8199 78.2989 11.5105 77.9792 12.2748C77.6594 13.0391 77.5015 13.8609 77.5153 14.6887C77.5477 16.34 78.2298 17.9129 79.415 19.0694C80.6003 20.2259 82.1942 20.8737 83.8542 20.8737C85.5143 20.8737 87.1082 20.2259 88.2935 19.0694C89.4787 17.9129 90.1608 16.34 90.1932 14.6887C90.2065 13.8607 90.0481 13.0389 89.728 12.2746C89.4078 11.5103 88.9328 10.8198 88.3324 10.2463Z" fill="white"/>
<path d="M96.4489 12.585C96.4361 11.6195 96.6223 10.6616 96.9959 9.77042C97.3694 8.87921 97.9225 8.07356 98.621 7.40313C99.3057 6.71827 100.12 6.17479 101.016 5.80395C101.913 5.4331 102.874 5.24219 103.845 5.24219C104.816 5.24219 105.777 5.4331 106.674 5.80395C107.57 6.17479 108.384 6.71827 109.069 7.40313C109.767 8.07356 110.32 8.87921 110.694 9.77042C111.067 10.6616 111.254 11.6195 111.241 12.585V24.1351H108.055V12.585C108.052 11.4785 107.609 10.4181 106.824 9.63494C106.038 8.85182 104.973 8.40952 103.861 8.40445C103.306 8.39927 102.756 8.50596 102.244 8.7181C101.733 8.93024 101.269 9.24341 100.882 9.63869C100.482 10.0178 100.164 10.4752 99.9485 10.9822C99.7334 11.4891 99.6257 12.0348 99.6322 12.585V24.1351L96.4489 25.7055V12.585Z" fill="white"/>
<path d="M122.819 5.24183C124.527 5.24364 126.204 5.70045 127.675 6.56481C129.146 7.42917 130.357 8.66956 131.184 10.1572H127.255C126.672 9.58151 125.979 9.12771 125.217 8.82254C124.456 8.51736 123.64 8.36699 122.819 8.38027C121.987 8.3673 121.161 8.525 120.393 8.84352C119.625 9.16204 118.931 9.63456 118.354 10.2316C117.759 10.8111 117.288 11.5051 116.971 12.2713C116.654 13.0375 116.497 13.8599 116.51 14.6884C116.508 15.5132 116.67 16.3303 116.986 17.0927C117.303 17.8551 117.767 18.5478 118.354 19.131C118.94 19.7143 119.636 20.1765 120.402 20.4913C121.169 20.8061 121.99 20.9671 122.819 20.9652C123.825 20.9737 124.819 20.7406 125.715 20.2857C126.588 19.8481 127.342 19.2082 127.914 18.4199H131.534C130.809 20.1046 129.603 21.5406 128.066 22.5501C126.517 23.5978 124.684 24.1507 122.812 24.1349C121.566 24.1545 120.329 23.9194 119.178 23.4439C118.027 22.9685 116.987 22.263 116.121 21.371C115.228 20.5038 114.522 19.4642 114.046 18.316C113.571 17.1677 113.336 15.9349 113.356 14.6932C113.336 13.4514 113.571 12.2186 114.046 11.0704C114.522 9.92209 115.228 8.88251 116.121 8.01528C116.987 7.12072 118.028 6.41288 119.18 5.93575C120.333 5.45863 121.571 5.22242 122.819 5.24183Z" fill="white"/>
<path d="M135.154 8.01069C136.035 7.1329 137.081 6.43652 138.233 5.96139C139.385 5.48626 140.619 5.2417 141.866 5.2417C143.113 5.2417 144.347 5.48626 145.499 5.96139C146.65 6.43652 147.697 7.1329 148.578 8.01069C149.475 8.87562 150.185 9.9144 150.664 11.0629C151.143 12.2115 151.38 13.4454 151.36 14.6886C151.358 15.2145 151.309 15.7393 151.213 16.2566H135.738C136.083 17.6107 136.875 18.8105 137.986 19.6642C139.097 20.5179 140.464 20.9761 141.868 20.9655C142.735 20.9843 143.597 20.8169 144.393 20.4746C145.189 20.1323 145.902 19.6232 146.483 18.982H150.323C149.529 20.5322 148.32 21.8339 146.829 22.7433C145.338 23.6526 143.624 24.1343 141.875 24.1351C140.625 24.1562 139.383 23.9218 138.227 23.4464C137.071 22.971 136.025 22.2648 135.154 21.3713C134.256 20.5063 133.546 19.4676 133.068 18.319C132.589 17.1705 132.352 15.9366 132.371 14.6934C132.351 13.4494 132.588 12.2146 133.067 11.0651C133.545 9.91574 134.256 8.87618 135.154 8.01069ZM135.736 13.1182H147.998C147.675 11.761 146.889 10.5576 145.773 9.71318C144.653 8.84943 143.276 8.38069 141.859 8.38069C140.441 8.38069 139.064 8.84943 137.944 9.71318C136.835 10.5604 136.056 11.7636 135.738 13.1182H135.736Z" fill="white"/>
<path d="M153.534 14.6884C153.515 13.4465 153.75 12.2136 154.226 11.0653C154.702 9.91707 155.409 8.87758 156.303 8.01055C157.168 7.11686 158.21 6.40991 159.362 5.93361C160.514 5.45732 161.752 5.22188 163 5.2419V8.38034C162.168 8.36738 161.342 8.52507 160.574 8.84359C159.806 9.16211 159.112 9.63463 158.535 10.2317C157.939 10.8108 157.469 11.5047 157.151 12.271C156.834 13.0373 156.678 13.8599 156.691 14.6884V24.135L153.534 25.7054V14.6884Z" fill="white"/>
</g>
<defs>
<clipPath id="clip0_263_670">
<rect width="163" height="31.5981" fill="white"/>
</clipPath>
</defs>
</svg>
