<svg width="25" height="24" viewBox="0 0 25 24" fill="none" xmlns="http://www.w3.org/2000/svg">
<path fill-rule="evenodd" clip-rule="evenodd" d="M17.7184 17.752C16.8864 17.752 16.0405 17.346 14.8325 16.766L9.40093 14.158C9.95133 16.0901 10.8863 16.9488 11.8359 17.571C12.5089 18.012 12.9359 18.736 12.9779 19.508C13.0169 20.222 12.7208 20.894 12.1668 21.351L10.6758 22.58C10.5378 22.694 10.3679 22.751 10.1989 22.751C10.0339 22.751 9.86986 22.697 9.73286 22.589C6.43792 19.976 6.45282 18.366 6.48881 14.4752L6.49047 14.287C6.49255 14.0526 6.49467 13.813 6.49609 13.564C6.4163 13.579 6.34678 13.5899 6.27847 13.598C5.29547 13.71 4.37447 13.432 3.68247 12.815C2.91847 12.134 2.48047 11.091 2.48047 9.95597V9.04497C2.48047 7.90897 2.91847 6.86697 3.68247 6.18597C4.37347 5.56897 5.29449 5.29097 6.27749 5.40297C6.46449 5.42397 6.66042 5.46797 7.05142 5.55597C7.44342 5.64397 7.82242 5.60097 8.18042 5.42897L14.8366 2.23397C16.4341 1.46716 17.3984 1.0043 18.5375 1.38697C19.6915 1.77397 20.0945 2.61997 20.7035 3.89997C22.4005 7.45897 22.4005 11.542 20.7035 15.101C20.0937 16.3806 19.6903 17.227 18.5365 17.614C18.2565 17.708 17.9875 17.751 17.7165 17.751L17.7184 17.752ZM8.48145 12.0767C8.59948 12.1174 8.71593 12.1652 8.83042 12.22L15.4825 15.414C16.9805 16.133 17.5255 16.373 18.0615 16.193C18.5885 16.016 18.7774 15.661 19.3514 14.457C20.8524 11.308 20.8524 7.69497 19.3514 4.54597C18.7774 3.34097 18.5884 2.98597 18.0625 2.80897C17.5265 2.62897 16.9814 2.86897 15.4834 3.58797L8.83149 6.78097C8.71673 6.83609 8.59991 6.8841 8.48145 6.92497V12.0767ZM6.98145 11.9349C6.8964 11.9471 6.81135 11.9628 6.72642 11.982L6.65887 11.997C6.37327 12.0606 6.21084 12.0968 6.1105 12.108C5.5415 12.173 5.06245 12.034 4.68345 11.696C4.23845 11.299 3.98345 10.665 3.98345 9.95597V9.04497C3.98345 8.33597 4.23845 7.70197 4.68345 7.30497C5.06145 6.96697 5.54142 6.82797 6.10942 6.89297C6.21252 6.90442 6.38216 6.94231 6.68182 7.00923L6.72544 7.01897C6.81068 7.03808 6.89606 7.05377 6.98145 7.06605V11.9349ZM10.1958 21.031C7.98753 19.1686 7.95588 18.1436 7.98683 14.6842C8.53398 16.5425 9.48472 17.8246 11.0128 18.825C11.2888 19.006 11.4638 19.291 11.4798 19.589C11.4888 19.757 11.4499 19.997 11.2119 20.193L10.1958 21.031Z" fill="#161616"/>
</svg>
