<svg width="16" height="16" viewBox="0 0 16 16" fill="none" xmlns="http://www.w3.org/2000/svg">
<path fill-rule="evenodd" clip-rule="evenodd" d="M4.66699 4.1665C4.47923 4.1665 4.30729 4.2717 4.22181 4.43888C4.13633 4.60606 4.15172 4.80703 4.26165 4.95925L6.80804 8.48502L4.31344 10.9796C4.11818 11.1749 4.11818 11.4915 4.31344 11.6867C4.5087 11.882 4.82529 11.882 5.02055 11.6867L7.4011 9.30617L9.07647 11.6259C9.17047 11.7561 9.32126 11.8332 9.48181 11.8332H11.3337C11.5214 11.8332 11.6934 11.728 11.7788 11.5608C11.8643 11.3936 11.8489 11.1926 11.739 11.0404L9.19261 7.51466L11.6872 5.02006C11.8825 4.82479 11.8825 4.50821 11.6872 4.31295C11.492 4.11769 11.1754 4.11769 10.9801 4.31295L8.59956 6.6935L6.92419 4.37376C6.83018 4.2436 6.6794 4.1665 6.51885 4.1665H4.66699ZM10.3558 10.8332H9.73747L5.64487 5.1665H6.26319L10.3558 10.8332Z" fill="#D0D0C8"/>
<path fill-rule="evenodd" clip-rule="evenodd" d="M8.03844 1.1665H7.96221C6.50174 1.1665 5.35462 1.16649 4.45901 1.2869C3.54124 1.41029 2.81307 1.66831 2.24093 2.24045C1.6688 2.81258 1.41078 3.54075 1.28739 4.45852C1.16698 5.35413 1.16698 6.50125 1.16699 7.96172V8.03795C1.16698 9.49842 1.16698 10.6455 1.28739 11.5412C1.41078 12.4589 1.6688 13.1871 2.24093 13.7592C2.81307 14.3314 3.54124 14.5894 4.45901 14.7128C5.35462 14.8332 6.50173 14.8332 7.96219 14.8332H8.03844C9.4989 14.8332 10.646 14.8332 11.5416 14.7128C12.4594 14.5894 13.1876 14.3314 13.7597 13.7592C14.3318 13.1871 14.5899 12.4589 14.7133 11.5412C14.8337 10.6455 14.8337 9.49843 14.8337 8.03797V7.96173C14.8337 6.50126 14.8337 5.35413 14.7133 4.45852C14.5899 3.54075 14.3318 2.81258 13.7597 2.24045C13.1876 1.66831 12.4594 1.41029 11.5416 1.2869C10.646 1.16649 9.49891 1.1665 8.03844 1.1665ZM2.94804 2.94755C3.3034 2.59219 3.78537 2.38647 4.59226 2.27798C5.41352 2.16757 6.49341 2.1665 8.00033 2.1665C9.50724 2.1665 10.5871 2.16757 11.4084 2.27798C12.2153 2.38647 12.6972 2.59219 13.0526 2.94755C13.408 3.30292 13.6137 3.78488 13.7222 4.59177C13.8326 5.41303 13.8337 6.49292 13.8337 7.99984C13.8337 9.50675 13.8326 10.5866 13.7222 11.4079C13.6137 12.2148 13.408 12.6968 13.0526 13.0521C12.6972 13.4075 12.2153 13.6132 11.4084 13.7217C10.5871 13.8321 9.50724 13.8332 8.00033 13.8332C6.49341 13.8332 5.41352 13.8321 4.59226 13.7217C3.78537 13.6132 3.3034 13.4075 2.94804 13.0521C2.59268 12.6968 2.38695 12.2148 2.27847 11.4079C2.16805 10.5866 2.16699 9.50675 2.16699 7.99984C2.16699 6.49292 2.16805 5.41303 2.27847 4.59177C2.38695 3.78488 2.59268 3.30292 2.94804 2.94755Z" fill="#D0D0C8"/>
</svg>
