<svg width="18" height="19" viewBox="0 0 18 19" fill="none" xmlns="http://www.w3.org/2000/svg">
<g clip-path="url(#clip0_263_656)">
<path d="M8.86551 1.60352C4.79568 1.60352 1.5 4.90657 1.5 8.9764C1.5 13.0462 4.79568 16.3493 8.86551 16.3493C12.9427 16.3493 16.2458 13.0462 16.2458 8.9764C16.2458 4.90657 12.9427 1.60352 8.86551 1.60352ZM8.87288 14.8747C5.61407 14.8747 2.97458 12.2352 2.97458 8.9764C2.97458 5.71758 5.61407 3.07809 8.87288 3.07809C12.1317 3.07809 14.7712 5.71758 14.7712 8.9764C14.7712 12.2352 12.1317 14.8747 8.87288 14.8747ZM8.71068 5.28996H8.66644C8.37153 5.28996 8.13559 5.52589 8.13559 5.8208V9.3008C8.13559 9.55885 8.26831 9.80216 8.49686 9.93487L11.5566 11.7707C11.8073 11.9182 12.1317 11.8444 12.2792 11.5938C12.434 11.3431 12.3529 11.0113 12.0948 10.8639L9.24153 9.16809V5.8208C9.24153 5.52589 9.00559 5.28996 8.71068 5.28996V5.28996Z" fill="#303030"/>
</g>
<defs>
<clipPath id="clip0_263_656">
<rect width="18" height="18" fill="white" transform="translate(0 0.103516)"/>
</clipPath>
</defs>
</svg>
