<svg width="25" height="24" viewBox="0 0 25 24" fill="none" xmlns="http://www.w3.org/2000/svg">
<path d="M10.6377 19C10.6377 18.5858 10.9735 18.25 11.3877 18.25H13.3877C13.8019 18.25 14.1377 18.5858 14.1377 19C14.1377 19.4142 13.8019 19.75 13.3877 19.75H11.3877C10.9735 19.75 10.6377 19.4142 10.6377 19Z" fill="#161616"/>
<path fill-rule="evenodd" clip-rule="evenodd" d="M12.3319 1.25H12.4434C14.046 1.24998 15.325 1.24997 16.3281 1.38483C17.3643 1.52415 18.2178 1.81966 18.8929 2.4948C19.568 3.16994 19.8635 4.02335 20.0029 5.05961C20.1377 6.0627 20.1377 7.34166 20.1377 8.94426V15.0557C20.1377 16.6583 20.1377 17.9373 20.0029 18.9404C19.8635 19.9767 19.568 20.8301 18.8929 21.5052C18.2178 22.1803 17.3643 22.4759 16.3281 22.6152C15.325 22.75 14.046 22.75 12.4434 22.75H12.332C10.7294 22.75 9.4504 22.75 8.44731 22.6152C7.41104 22.4759 6.55763 22.1803 5.88249 21.5052C5.20735 20.8301 4.91185 19.9767 4.77253 18.9404C4.63766 17.9373 4.63768 16.6583 4.6377 15.0558V8.94426C4.63768 7.34167 4.63766 6.0627 4.77253 5.05961C4.91185 4.02335 5.20735 3.16994 5.88249 2.4948C6.55763 1.81966 7.41104 1.52415 8.44731 1.38483C9.45039 1.24997 10.7294 1.24998 12.3319 1.25ZM8.64718 2.87145C7.77725 2.98841 7.29314 3.20547 6.94315 3.55546C6.59317 3.90544 6.37611 4.38955 6.25915 5.25949C6.13929 6.15099 6.1377 7.32888 6.1377 9V15C6.1377 16.6711 6.13929 17.849 6.25915 18.7405C6.37611 19.6105 6.59317 20.0946 6.94315 20.4445C7.29314 20.7945 7.77725 21.0116 8.64718 21.1285C9.53869 21.2484 10.7166 21.25 12.3877 21.25C14.0588 21.25 15.2367 21.2484 16.1282 21.1285C16.9981 21.0116 17.4823 20.7945 17.8322 20.4445C18.1822 20.0946 18.3993 19.6105 18.5162 18.7405C18.6361 17.849 18.6377 16.6711 18.6377 15V9C18.6377 7.32888 18.6361 6.15099 18.5162 5.25949C18.3993 4.38955 18.1822 3.90544 17.8322 3.55546C17.4823 3.20547 16.9981 2.98841 16.1282 2.87145C16.0879 2.86603 16.0469 2.86085 16.0054 2.8559C15.9255 3.33304 15.8517 3.75073 15.7518 4.09118C15.6327 4.497 15.4541 4.87807 15.1103 5.18307C14.7547 5.49855 14.3452 5.63108 13.9065 5.6917C13.4929 5.74887 12.9825 5.75001 12.3877 5.75001C11.7929 5.75001 11.2825 5.74887 10.869 5.6917C10.4303 5.63108 10.0208 5.49855 9.66518 5.18307C9.32141 4.87807 9.1428 4.497 9.0237 4.09118C8.92378 3.75073 8.84999 3.33304 8.77008 2.85589C8.72851 2.86084 8.68755 2.86603 8.64718 2.87145ZM10.276 2.76455C10.3445 3.16581 10.3984 3.4487 10.463 3.66877C10.5395 3.92961 10.6076 4.01392 10.6607 4.06103C10.7191 4.11285 10.81 4.1693 11.0743 4.20583C11.3637 4.24582 11.7587 4.25001 12.3877 4.25001C13.0168 4.25001 13.4118 4.24582 13.7012 4.20583C13.9654 4.1693 14.0564 4.11285 14.1148 4.06103C14.1679 4.01392 14.2359 3.92961 14.3125 3.66877C14.3771 3.4487 14.431 3.16581 14.4995 2.76455C13.8963 2.75038 13.2003 2.75 12.3877 2.75C11.5751 2.75 10.8791 2.75038 10.276 2.76455Z" fill="#161616"/>
</svg>
