<svg width="14" height="12" viewBox="0 0 14 12" fill="none" xmlns="http://www.w3.org/2000/svg">
<path d="M7.83994 -0.000114646C4.4466 -0.093448 1.66661 2.63322 1.66661 5.99989H0.473272C0.173272 5.99989 0.0266057 6.35989 0.239939 6.56655L2.09994 8.43322C2.23327 8.56655 2.43994 8.56655 2.57327 8.43322L4.43327 6.56655C4.63994 6.35989 4.49327 5.99989 4.19327 5.99989H2.99994C2.99994 3.39989 5.11994 1.29989 7.73327 1.33322C10.2133 1.36655 12.2999 3.45322 12.3333 5.93322C12.3666 8.53989 10.2666 10.6666 7.6666 10.6666C6.59327 10.6666 5.59994 10.2999 4.81327 9.67989C4.5466 9.47322 4.17327 9.49322 3.93327 9.73322C3.65327 10.0132 3.67327 10.4866 3.9866 10.7266C4.99994 11.5266 6.27327 11.9999 7.6666 11.9999C11.0333 11.9999 13.7599 9.21989 13.6666 5.82655C13.5799 2.69989 10.9666 0.086552 7.83994 -0.000114646ZM7.49994 3.33322C7.2266 3.33322 6.99994 3.55989 6.99994 3.83322V6.28655C6.99994 6.51989 7.1266 6.73989 7.3266 6.85989L9.4066 8.09322C9.6466 8.23322 9.95327 8.15322 10.0933 7.91989C10.2333 7.67989 10.1533 7.37322 9.91994 7.23322L7.99994 6.09322V3.82655C7.99994 3.55989 7.77327 3.33322 7.49994 3.33322Z" fill="#94D401"/>
</svg>
