<svg width="16" height="16" viewBox="0 0 16 16" fill="none" xmlns="http://www.w3.org/2000/svg">
<path fill-rule="evenodd" clip-rule="evenodd" d="M4.46425 2.18083C5.57024 1.95538 6.76068 1.83301 7.99975 1.83301C9.23882 1.83301 10.4293 1.95538 11.5352 2.18083L11.6201 2.19811C12.8832 2.4552 13.7248 2.6265 14.45 3.55895C15.1675 4.4814 15.1671 5.55114 15.1665 7.20794V8.79141C15.1671 10.4482 15.1675 11.518 14.45 12.4404C13.7248 13.3728 12.8832 13.5441 11.6201 13.8012L11.5352 13.8185C10.4293 14.044 9.23882 14.1663 7.99975 14.1663C6.76068 14.1663 5.57024 14.044 4.46425 13.8185L4.37939 13.8012C3.11631 13.5441 2.27471 13.3728 1.54947 12.4404C0.832021 11.518 0.832422 10.4482 0.833044 8.79141V7.20794C0.832422 5.55114 0.832021 4.4814 1.54947 3.55895C2.27471 2.6265 3.11631 2.4552 4.3794 2.19811L4.46425 2.18083ZM7.52943 5.50117C7.87512 5.64625 8.29503 5.88076 8.80844 6.16749C8.87604 6.20524 8.94394 6.24273 9.01193 6.28026C9.34753 6.46553 9.68508 6.65188 9.99634 6.87569C10.2761 7.07684 10.5415 7.3261 10.6294 7.68961C10.6787 7.89368 10.6787 8.10567 10.6294 8.30974C10.5415 8.67325 10.2761 8.92251 9.99634 9.12366C9.68506 9.34749 9.34748 9.53385 9.01186 9.71913C8.9439 9.75665 8.87602 9.79412 8.80845 9.83185C8.29503 10.1186 7.87513 10.3531 7.52943 10.4982C6.96744 10.734 6.37148 10.7531 5.88168 10.3518C5.57511 10.1006 5.46675 9.74097 5.4192 9.37853C5.3043 8.50258 5.30425 7.49713 5.4192 6.62082C5.46675 6.25838 5.57511 5.89873 5.88168 5.64755C6.37148 5.24623 6.96744 5.26531 7.52943 5.50117Z" fill="#222222"/>
</svg>
